<?xml version="1.0" encoding="utf-8"?>
<!-- Generator: Adobe Illustrator 16.0.0, SVG Export Plug-In . SVG Version: 6.00 Build 0)  -->
<!DOCTYPE svg PUBLIC "-//W3C//DTD SVG 1.1//EN" "http://www.w3.org/Graphics/SVG/1.1/DTD/svg11.dtd">
<svg version="1.1" id="Layer_1" xmlns="http://www.w3.org/2000/svg" xmlns:xlink="http://www.w3.org/1999/xlink" x="0px" y="0px"
	 width="2000px" height="2000px" viewBox="0 0 2000 2000" enable-background="new 0 0 2000 2000" xml:space="preserve">
<path fill="#EB310A" d="M76.025,902.851c21.964-347.438,331.373-695.97,693.833-797.822
	c547.285-153.804,1061.827,184.283,1139.214,748.55c65.958,480.907-196.459,915.452-632.883,1048.038
	c-458.133,139.179-933.217-145.864-1026.638-615.949c-76.472-384.822,110.117-743.69,455.248-875.563
	c275.406-105.241,577.11-8.597,742.233,237.721c162.286,242.159,145.304,552.366-48.173,751.873
	c-135.752,140.009-303.268,197.211-493.772,137.268c-180.495-56.807-279.175-190.586-308.097-375.542
	c-34.356-219.722,146.515-426.862,358.596-412.799c159.509,10.589,278.774,180.085,226.736,322.231
	c-34.148,93.239-116.468,132.852-199.795,91.783c8.667-6.146,14.766-12.604,22.237-15.422
	c56.323-21.192,75.479-63.955,66.81-119.843c-9.203-59.301-47.77-91.93-105.628-100.786
	c-87.67-13.423-168.982,50.928-184.651,144.402c-29.761,177.683,140.114,331.09,318.718,287.791
	c198.858-48.183,312.527-258.606,253.167-468.694c-87.482-309.701-454.681-426.578-711.816-225.199
	c-185.604,145.38-252.509,341.152-207.443,566.585c50.792,254.098,206.395,426.326,461.095,490.311
	c356.708,89.612,715.626-150.472,813.519-535.777c129.051-507.97-288.407-1022.219-811.022-999.088
	C534.756,202.996,207.341,468.035,97.546,834.407C90.676,857.315,83.213,880.035,76.025,902.851z"/>
</svg>
