<?xml version="1.0" encoding="utf-8"?>
<!-- Generator: Adobe Illustrator 16.0.0, SVG Export Plug-In . SVG Version: 6.00 Build 0)  -->
<!DOCTYPE svg PUBLIC "-//W3C//DTD SVG 1.1//EN" "http://www.w3.org/Graphics/SVG/1.1/DTD/svg11.dtd">
<svg version="1.1" id="Layer_1" xmlns="http://www.w3.org/2000/svg" xmlns:xlink="http://www.w3.org/1999/xlink" x="0px" y="0px"
	 width="2000px" height="2000px" viewBox="0 0 2000 2000" enable-background="new 0 0 2000 2000" xml:space="preserve">
<g>
	<path fill="#231F20" d="M25-9H0v1009c0-76.702,8.648-151.381,25-223.13V-9z"/>
	<path fill="#231F20" d="M0,2016.002h25V1223.13C8.648,1151.381,0,1076.701,0,1000V2016.002z"/>
	<path fill="#231F20" d="M75-9H50v695.939c7.541-22.896,15.883-45.429,25-67.561V-9z"/>
	<path fill="#231F20" d="M50,2016.002h25v-635.381c-9.117-22.132-17.459-44.664-25-67.561V2016.002z"/>
	<path fill="#231F20" d="M125-9h-25v572.621c7.91-16.282,16.248-32.318,25-48.092V-9z"/>
	<path fill="#231F20" d="M100,2016.002h25v-531.531c-8.752-15.774-17.09-31.81-25-48.092V2016.002z"/>
	<path fill="#231F20" d="M175-9h-25v481.978c8.047-12.951,16.387-25.7,25-38.247V-9z"/>
	<path fill="#231F20" d="M166.667,1000c0,40.141,2.847,79.616,8.333,118.242V881.758C169.514,920.383,166.667,959.859,166.667,1000z
		"/>
	<path fill="#231F20" d="M150,2016.002h25v-450.733c-8.613-12.547-16.953-25.296-25-38.247V2016.002z"/>
	<path fill="#231F20" d="M200,765.947v468.105c7.236,24.773,15.584,49.071,25,72.831V693.116
		C215.584,716.875,207.236,741.174,200,765.947z"/>
	<path fill="#231F20" d="M200,2016.002h25v-384.021c-8.542-10.462-16.88-21.096-25-31.903V2016.002z"/>
	<path fill="#231F20" d="M225-9h-25v408.921c8.12-10.808,16.458-21.441,25-31.903V-9z"/>
	<path fill="#231F20" d="M250,636.35v727.299c7.834,16.129,16.176,31.964,25,47.49V588.86
		C266.176,604.386,257.834,620.222,250,636.35z"/>
	<path fill="#231F20" d="M275-9h-25v347.563c8.167-9.254,16.5-18.358,25-27.302V-9z"/>
	<path fill="#231F20" d="M250,2016.002h25v-327.264c-8.5-8.944-16.833-18.048-25-27.302V2016.002z"/>
	<path fill="#231F20" d="M300,2016.002h25v-278.197c-8.467-7.751-16.804-15.642-25-23.677V2016.002z"/>
	<path fill="#231F20" d="M325-9h-25v294.871c8.196-8.035,16.533-15.925,25-23.676V-9z"/>
	<path fill="#231F20" d="M300,547.688v904.625c8.019,12.384,16.354,24.544,25,36.464V511.224
		C316.354,523.144,308.019,535.304,300,547.688z"/>
	<path fill="#231F20" d="M350,2016.002h25v-235.346c-8.448-6.772-16.779-13.685-25-20.722V2016.002z"/>
	<path fill="#231F20" d="M350,1148.753v372.769c8.105,10.089,16.443,19.98,25,29.676v-318.724
		C364.909,1205.356,356.53,1177.407,350,1148.753z"/>
	<path fill="#231F20" d="M375-9h-25v249.065c8.221-7.038,16.552-13.95,25-20.722V-9z"/>
	<path fill="#231F20" d="M375,767.526V448.802c-8.557,9.695-16.895,19.587-25,29.676v372.769
		C356.53,822.593,364.909,794.644,375,767.526z"/>
	<path fill="#231F20" d="M400,2016.002h25v-197.768c-8.429-5.935-16.766-11.99-25-18.175V2016.002z"/>
	<path fill="#231F20" d="M400,1290.919v287.372c8.161,8.466,16.49,16.77,25,24.885v-265.608
		C416.072,1322.393,407.73,1306.832,400,1290.919z"/>
	<path fill="#231F20" d="M425-9h-25v208.94c8.234-6.186,16.571-12.241,25-18.175V-9z"/>
	<path fill="#231F20" d="M425,662.433V396.824c-8.51,8.115-16.839,16.418-25,24.884v287.372
		C407.73,693.167,416.072,677.607,425,662.433z"/>
	<path fill="#231F20" d="M475-9h-25v173.71c8.247-5.441,16.585-10.754,25-15.955V-9z"/>
	<path fill="#231F20" d="M475,589.084V352.82c-8.473,6.882-16.808,13.927-25,21.13v249.205
		C457.981,611.528,466.316,600.163,475,589.084z"/>
	<path fill="#231F20" d="M450,2016.002h25v-164.757c-8.415-5.201-16.753-10.514-25-15.955V2016.002z"/>
	<path fill="#231F20" d="M450,1376.846v249.204c8.192,7.203,16.527,14.248,25,21.13v-236.264
		C466.316,1399.837,457.981,1388.472,450,1376.846z"/>
	<path fill="#231F20" d="M525,532.234V315.212c-8.449,5.872-16.782,11.899-25,18.071v225.759
		C508.088,549.878,516.426,540.94,525,532.234z"/>
	<path fill="#231F20" d="M500,2016.002h25v-135.809c-8.407-4.547-16.74-9.212-25-13.99V2016.002z"/>
	<path fill="#231F20" d="M500,1000c0,54.672,8.782,107.29,25,156.531V843.469C508.782,892.71,500,945.329,500,1000z"/>
	<path fill="#231F20" d="M500,1440.957v225.76c8.218,6.173,16.551,12.199,25,18.071v-217.022
		C516.426,1459.06,508.088,1450.122,500,1440.957z"/>
	<path fill="#231F20" d="M525-9h-25v142.797c8.26-4.778,16.593-9.444,25-13.99V-9z"/>
	<path fill="#231F20" d="M575,486.352V283.047c-8.43,5.008-16.765,10.157-25,15.451V508.13
		C558.151,500.669,566.485,493.405,575,486.352z"/>
	<path fill="#231F20" d="M575-9h-25v115.75c8.269-4.174,16.601-8.241,25-12.19V-9z"/>
	<path fill="#231F20" d="M550,1491.87v209.632c8.235,5.294,16.57,10.443,25,15.451v-203.305
		C566.485,1506.595,558.151,1499.331,550,1491.87z"/>
	<path fill="#231F20" d="M550,781.81v436.38c7.566,15.575,15.916,30.7,25,45.321V736.488
		C565.916,751.109,557.566,766.234,550,781.81z"/>
	<path fill="#231F20" d="M550,2016.002h25V1905.44c-8.399-3.949-16.731-8.017-25-12.19V2016.002z"/>
	<path fill="#231F20" d="M600,2016.002h25v-88.708c-8.389-3.396-16.726-6.892-25-10.506V2016.002z"/>
	<path fill="#231F20" d="M625,448.737V255.625c-8.416,4.248-16.751,8.632-25,13.155v197.847
		C608.188,460.477,616.525,454.513,625,448.737z"/>
	<path fill="#231F20" d="M600,699.96v600.08c7.933,10.559,16.274,20.792,25,30.679V669.281
		C616.274,679.168,607.933,689.401,600,699.96z"/>
	<path fill="#231F20" d="M600,1533.373v197.848c8.249,4.522,16.584,8.906,25,13.154v-193.112
		C616.525,1545.486,608.188,1539.523,600,1533.373z"/>
	<path fill="#231F20" d="M625-9h-25v92.212c8.274-3.615,16.611-7.11,25-10.506V-9z"/>
	<path fill="#231F20" d="M650,1567.496v188.982c8.262,3.829,16.594,7.533,25,11.097v-185.357
		C666.55,1577.49,658.218,1572.576,650,1567.496z"/>
	<path fill="#231F20" d="M675,417.782V232.425c-8.406,3.563-16.738,7.268-25,11.097v188.982
		C658.218,427.424,666.55,422.51,675,417.782z"/>
	<path fill="#231F20" d="M675-9h-25v71.981c8.282-3.095,16.616-6.084,25-8.964V-9z"/>
	<path fill="#231F20" d="M666.667,1000c0-25.559,2.886-50.442,8.333-74.351V620.032c-8.59,7.354-16.93,14.991-25,22.903v714.129
		c8.07,7.912,16.41,15.549,25,22.903v-305.617C669.553,1050.441,666.667,1025.559,666.667,1000z"/>
	<path fill="#231F20" d="M650,2016.002h25v-70.019c-8.384-2.88-16.718-5.869-25-8.965V2016.002z"/>
	<path fill="#231F20" d="M700,2016.002h25v-54.298c-8.38-2.392-16.712-4.896-25-7.498V2016.002z"/>
	<path fill="#231F20" d="M700,1595.5v182.185c8.271,3.193,16.604,6.263,25,9.196v-179.401
		C716.57,1603.657,708.238,1599.658,700,1595.5z"/>
	<path fill="#231F20" d="M700,1145.446v254.584c8.145,6.118,16.48,11.994,25,17.615v-229.248
		C715.648,1174.773,707.276,1160.427,700,1145.446z"/>
	<path fill="#231F20" d="M725,392.52V213.119c-8.396,2.935-16.729,6.003-25,9.196V404.5C708.238,400.342,716.57,396.342,725,392.52z
		"/>
	<path fill="#231F20" d="M725,811.603V582.354c-8.52,5.621-16.855,11.498-25,17.615v254.584
		C707.276,839.573,715.648,825.227,725,811.603z"/>
	<path fill="#231F20" d="M725-9h-25v54.794c8.288-2.603,16.62-5.107,25-7.499V-9z"/>
	<path fill="#231F20" d="M750,1220.452v212.649c8.189,4.737,16.526,9.246,25,13.523v-200.698
		C766.219,1237.889,757.878,1229.38,750,1220.452z"/>
	<path fill="#231F20" d="M775,372.27V197.41c-8.387,2.347-16.722,4.818-25,7.418v176.976
		C758.252,378.463,766.587,375.286,775,372.27z"/>
	<path fill="#231F20" d="M750,2016.002h25v-41.421c-8.374-1.926-16.708-3.952-25-6.086V2016.002z"/>
	<path fill="#231F20" d="M750,1618.195v176.977c8.278,2.601,16.613,5.072,25,7.418v-174.86
		C766.587,1624.714,758.252,1621.536,750,1618.195z"/>
	<path fill="#231F20" d="M775-9h-25v40.505c8.292-2.134,16.626-4.16,25-6.085V-9z"/>
	<path fill="#231F20" d="M775,754.074V553.375c-8.474,4.277-16.811,8.786-25,13.523v212.65
		C757.878,770.621,766.219,762.112,775,754.074z"/>
	<path fill="#231F20" d="M825,356.542V185.086c-8.38,1.791-16.715,3.704-25,5.745v173.032
		C808.266,361.267,816.599,358.821,825,356.542z"/>
	<path fill="#231F20" d="M800,1266.683v191.712c8.219,3.591,16.557,6.96,25,10.115v-184.778
		C816.401,1278.417,808.056,1272.733,800,1266.683z"/>
	<path fill="#231F20" d="M800,1636.137v173.033c8.285,2.04,16.62,3.953,25,5.744v-171.456
		C816.599,1641.178,808.266,1638.732,800,1636.137z"/>
	<path fill="#231F20" d="M825-9h-25v29.013c8.296-1.685,16.63-3.264,25-4.741V-9z"/>
	<path fill="#231F20" d="M825,716.269V531.49c-8.443,3.155-16.781,6.524-25,10.116v191.712
		C808.056,727.267,816.401,721.584,825,716.269z"/>
	<path fill="#231F20" d="M800,2016.002h25v-31.273c-8.37-1.478-16.704-3.057-25-4.741V2016.002z"/>
	<path fill="#231F20" d="M875,690.921V515.752c-8.422,2.167-16.756,4.555-25,7.145v179.366
		C858.146,698.15,866.487,694.368,875,690.921z"/>
	<path fill="#231F20" d="M850,927.277v145.445c6.628,13.646,15.068,26.248,25,37.502v-220.45
		C865.068,901.029,856.628,913.631,850,927.277z"/>
	<path fill="#231F20" d="M875-9h-25v20.187c8.3-1.249,16.634-2.395,25-3.438V-9z"/>
	<path fill="#231F20" d="M850,1649.72v170.139c8.292,1.507,16.625,2.894,25,4.153V1654.96
		C866.61,1653.368,858.275,1651.623,850,1649.72z"/>
	<path fill="#231F20" d="M875,345.04V175.989c-8.375,1.26-16.708,2.646-25,4.153V350.28C858.275,348.377,866.61,346.631,875,345.04z
		"/>
	<path fill="#231F20" d="M850,1297.737v179.365c8.244,2.59,16.578,4.978,25,7.146v-175.169
		C866.487,1305.633,858.146,1301.85,850,1297.737z"/>
	<path fill="#231F20" d="M850,2016.002h25v-23.751c-8.366-1.043-16.7-2.189-25-3.438V2016.002z"/>
	<path fill="#231F20" d="M925,675.142V505.594c-8.403,1.264-16.739,2.735-25,4.413v171.931
		C908.202,679.361,916.538,677.087,925,675.142z"/>
	<path fill="#231F20" d="M900,866.66v266.68c7.827,5.879,16.19,11.081,25,15.528V851.132C916.19,855.579,907.827,860.78,900,866.66z
		"/>
	<path fill="#231F20" d="M900,1659.208v168.172c8.298,0.992,16.629,1.876,25,2.623v-167.517
		C916.619,1661.548,908.284,1660.454,900,1659.208z"/>
	<path fill="#231F20" d="M925-9h-25V4.949c8.304-0.824,16.638-1.549,25-2.169V-9z"/>
	<path fill="#231F20" d="M925,337.513V169.998c-8.371,0.747-16.702,1.631-25,2.623v168.17
		C908.284,339.545,916.619,338.452,925,337.513z"/>
	<path fill="#231F20" d="M900,2016.002h25v-18.782c-8.362-0.62-16.696-1.345-25-2.169V2016.002z"/>
	<path fill="#231F20" d="M900,1318.063v171.931c8.261,1.677,16.597,3.148,25,4.412v-169.547
		C916.538,1322.913,908.202,1320.64,900,1318.063z"/>
	<path fill="#231F20" d="M975,333.798V167.049c-8.365,0.247-16.699,0.616-25,1.107v167.03
		C958.292,334.572,966.626,334.107,975,333.798z"/>
	<path fill="#231F20" d="M950,1329.6v167.926c8.276,0.821,16.61,1.443,25,1.856v-166.979
		C966.575,1331.778,958.239,1330.84,950,1329.6z"/>
	<path fill="#231F20" d="M950,2016.002h25v-16.313c-8.359-0.205-16.692-0.516-25-0.925V2016.002z"/>
	<path fill="#231F20" d="M975-9h-25V1.236c8.308-0.409,16.641-0.72,25-0.925V-9z"/>
	<path fill="#231F20" d="M975,667.598V500.618c-8.39,0.413-16.724,1.035-25,1.856V670.4
		C958.239,669.161,966.575,668.222,975,667.598z"/>
	<path fill="#231F20" d="M950,840.969v318.062c8.085,2.54,16.436,4.48,25,5.769V835.2C966.436,836.489,958.085,838.429,950,840.969z
		"/>
	<path fill="#231F20" d="M950,1664.812v167.031c8.301,0.491,16.635,0.861,25,1.107v-166.75
		C966.626,1665.893,958.292,1665.427,950,1664.812z"/>
	<path fill="#231F20" d="M1025-9h-25v9c8.358,0,16.691,0.107,25,0.312V-9z"/>
	<path fill="#231F20" d="M1000,1333.334V1500c8.384,0,16.718-0.21,25-0.618v-166.979
		C1016.746,1333.015,1008.41,1333.334,1000,1333.334z"/>
	<path fill="#231F20" d="M1025,667.598V500.618c-8.282-0.408-16.616-0.618-25-0.618v166.667
		C1008.41,666.667,1016.746,666.985,1025,667.598z"/>
	<path fill="#231F20" d="M1000,2016.002h25v-16.313c-8.309,0.204-16.642,0.312-25,0.312V2016.002z"/>
	<path fill="#231F20" d="M1000,833.333v333.333c8.497,0,16.845-0.641,25-1.867V835.2
		C1016.845,833.974,1008.497,833.333,1000,833.333z"/>
	<path fill="#231F20" d="M1000,1666.666v166.668c8.364,0,16.695-0.138,25-0.383v-166.75
		C1016.704,1666.508,1008.371,1666.666,1000,1666.666z"/>
	<path fill="#231F20" d="M1025,333.798V167.049c-8.305-0.245-16.636-0.383-25-0.383v166.667
		C1008.371,333.333,1016.704,333.492,1025,333.798z"/>
	<path fill="#231F20" d="M1075,337.513V169.998c-8.298-0.74-16.634-1.346-25-1.841v167.03
		C1058.378,335.809,1066.712,336.585,1075,337.513z"/>
	<path fill="#231F20" d="M1075,675.142V505.594c-8.269-1.244-16.604-2.286-25-3.119V670.4
		C1058.44,671.67,1066.779,673.251,1075,675.142z"/>
	<path fill="#231F20" d="M1050,1329.6v167.926c8.396-0.834,16.731-1.875,25-3.119v-169.547
		C1066.779,1326.749,1058.44,1328.33,1050,1329.6z"/>
	<path fill="#231F20" d="M1050,840.969v318.062c8.66-2.72,17.014-6.131,25-10.163V851.132
		C1067.014,847.1,1058.66,843.689,1050,840.969z"/>
	<path fill="#231F20" d="M1050,2016.002h25v-18.782c-8.306,0.615-16.639,1.132-25,1.544V2016.002z"/>
	<path fill="#231F20" d="M1075-9h-25V1.236c8.361,0.412,16.694,0.929,25,1.544V-9z"/>
	<path fill="#231F20" d="M1050,1664.812v167.031c8.366-0.495,16.702-1.101,25-1.841v-167.517
		C1066.712,1663.414,1058.378,1664.191,1050,1664.812z"/>
	<path fill="#231F20" d="M1100,1318.063v171.931c8.411-1.708,16.748-3.623,25-5.746v-175.169
		C1116.82,1312.391,1108.486,1315.397,1100,1318.063z"/>
	<path fill="#231F20" d="M1125,690.921V515.752c-8.252-2.124-16.589-4.039-25-5.746v171.931
		C1108.486,684.603,1116.82,687.61,1125,690.921z"/>
	<path fill="#231F20" d="M1100,866.66v266.68c9.104-6.838,17.478-14.592,25-23.115V889.775
		C1117.478,881.251,1109.104,873.498,1100,866.66z"/>
	<path fill="#231F20" d="M1100,1659.208v168.171c8.371-1.001,16.707-2.12,25-3.367V1654.96
		C1116.72,1656.53,1108.386,1657.946,1100,1659.208z"/>
	<path fill="#231F20" d="M1100,2016.002h25v-23.751c-8.303,1.035-16.636,1.969-25,2.8V2016.002z"/>
	<path fill="#231F20" d="M1125,345.04V175.989c-8.293-1.248-16.629-2.367-25-3.368v168.17
		C1108.386,342.053,1116.72,343.469,1125,345.04z"/>
	<path fill="#231F20" d="M1125-9h-25V4.949c8.364,0.831,16.697,1.765,25,2.8V-9z"/>
	<path fill="#231F20" d="M1175,356.542V185.086c-8.289-1.771-16.622-3.421-25-4.944V350.28
		C1158.395,352.21,1166.729,354.298,1175,356.542z"/>
	<path fill="#231F20" d="M1166.666,1000c0-26.073-5.992-50.745-16.666-72.722v145.442
		C1160.674,1050.745,1166.666,1026.073,1166.666,1000z"/>
	<path fill="#231F20" d="M1175,716.269V531.49c-8.233-3.077-16.567-5.945-25-8.593v179.366
		C1158.552,706.58,1166.891,711.256,1175,716.269z"/>
	<path fill="#231F20" d="M1150,1297.737v179.365c8.433-2.648,16.767-5.517,25-8.593v-184.778
		C1166.891,1288.744,1158.552,1293.421,1150,1297.737z"/>
	<path fill="#231F20" d="M1175-9h-25v20.187c8.367,1.259,16.701,2.62,25,4.085V-9z"/>
	<path fill="#231F20" d="M1150,1649.72v170.138c8.378-1.522,16.711-3.172,25-4.943v-171.456
		C1166.729,1645.701,1158.395,1647.789,1150,1649.72z"/>
	<path fill="#231F20" d="M1150,2016.002h25v-31.273c-8.299,1.465-16.633,2.825-25,4.084V2016.002z"/>
	<path fill="#231F20" d="M1225,372.27V197.41c-8.282-2.317-16.615-4.514-25-6.579v173.032
		C1208.407,366.503,1216.74,369.309,1225,372.27z"/>
	<path fill="#231F20" d="M1200,2016.002h25v-41.421c-8.294,1.906-16.629,3.707-25,5.406V2016.002z"/>
	<path fill="#231F20" d="M1200,1636.137v173.033c8.385-2.066,16.718-4.263,25-6.58v-174.86
		C1216.74,1630.69,1208.407,1633.496,1200,1636.137z"/>
	<path fill="#231F20" d="M1225-9h-25v29.013c8.371,1.699,16.706,3.5,25,5.407V-9z"/>
	<path fill="#231F20" d="M1225,754.074V553.375c-8.207-4.143-16.541-8.073-25-11.769v191.712
		C1208.672,739.832,1217.013,746.762,1225,754.074z"/>
	<path fill="#231F20" d="M1200,1266.683v191.712c8.459-3.696,16.793-7.627,25-11.77v-200.698
		C1217.013,1253.238,1208.672,1260.168,1200,1266.683z"/>
	<path fill="#231F20" d="M1250,1220.452v212.649c8.494-4.913,16.831-10.066,25-15.456v-229.247
		C1267.313,1199.596,1258.961,1210.298,1250,1220.452z"/>
	<path fill="#231F20" d="M1250,2016.002h25v-54.298c-8.291,2.366-16.623,4.635-25,6.791V2016.002z"/>
	<path fill="#231F20" d="M1275,392.52V213.119c-8.274-2.892-16.608-5.655-25-8.291v176.976
		C1258.419,385.212,1266.756,388.782,1275,392.52z"/>
	<path fill="#231F20" d="M1250,1618.195v176.977c8.392-2.636,16.726-5.399,25-8.291v-179.401
		C1266.756,1611.218,1258.419,1614.787,1250,1618.195z"/>
	<path fill="#231F20" d="M1275-9h-25v40.505c8.377,2.156,16.709,4.424,25,6.791V-9z"/>
	<path fill="#231F20" d="M1275,811.602V582.354c-8.169-5.389-16.506-10.543-25-15.457v212.65
		C1258.961,789.702,1267.313,800.404,1275,811.602z"/>
	<path fill="#231F20" d="M1300,1595.499v182.186c8.398-3.241,16.735-6.605,25-10.109v-185.358
		C1316.774,1586.818,1308.436,1591.241,1300,1595.499z"/>
	<path fill="#231F20" d="M1325,925.647V620.032c-8.113-6.946-16.449-13.64-25-20.062v254.583
		C1310.886,876.964,1319.333,900.775,1325,925.647z"/>
	<path fill="#231F20" d="M1325-9h-25v54.794c8.382,2.633,16.715,5.377,25,8.223V-9z"/>
	<path fill="#231F20" d="M1325,417.782V232.425c-8.265-3.504-16.602-6.867-25-10.109V404.5
		C1308.436,408.758,1316.774,413.181,1325,417.782z"/>
	<path fill="#231F20" d="M1300,2016.002h25v-70.019c-8.285,2.846-16.618,5.59-25,8.223V2016.002z"/>
	<path fill="#231F20" d="M1300,1145.447v254.583c8.551-6.423,16.887-13.116,25-20.062v-305.614
		C1319.333,1099.225,1310.886,1123.037,1300,1145.447z"/>
	<path fill="#231F20" d="M1375,448.737V255.625c-8.256-4.168-16.589-8.206-25-12.104v188.982
		C1358.461,437.732,1366.796,443.146,1375,448.737z"/>
	<path fill="#231F20" d="M1350,642.935v714.129c8.646-8.476,16.985-17.265,25-26.346V669.281
		C1366.985,660.2,1358.646,651.412,1350,642.935z"/>
	<path fill="#231F20" d="M1350,1567.496v188.982c8.411-3.897,16.744-7.936,25-12.104v-193.112
		C1366.796,1556.854,1358.461,1562.267,1350,1567.496z"/>
	<path fill="#231F20" d="M1350,2016.002h25v-88.708c-8.278,3.352-16.613,6.591-25,9.725V2016.002z"/>
	<path fill="#231F20" d="M1375-9h-25v71.981c8.387,3.134,16.722,6.374,25,9.725V-9z"/>
	<path fill="#231F20" d="M1400,2016.002h25V1905.44c-8.273,3.891-16.604,7.679-25,11.348V2016.002z"/>
	<path fill="#231F20" d="M1425,486.352V283.047c-8.242-4.896-16.578-9.651-25-14.268v197.847
		C1408.493,473.006,1416.828,479.583,1425,486.352z"/>
	<path fill="#231F20" d="M1425-9h-25v92.212c8.396,3.668,16.727,7.457,25,11.348V-9z"/>
	<path fill="#231F20" d="M1400,699.96v600.08c8.853-11.783,17.197-23.97,25-36.528V736.488
		C1417.197,723.93,1408.853,711.743,1400,699.96z"/>
	<path fill="#231F20" d="M1400,1533.373v197.848c8.422-4.617,16.758-9.372,25-14.268v-203.306
		C1416.828,1520.417,1408.493,1526.993,1400,1533.373z"/>
	<path fill="#231F20" d="M1450,781.81v436.38c9.645-19.854,18.013-40.443,25-61.659V843.469
		C1468.013,822.253,1459.645,801.665,1450,781.81z"/>
	<path fill="#231F20" d="M1475,532.235V315.212c-8.227-5.717-16.562-11.29-25-16.714V508.13
		C1458.541,515.948,1466.877,523.986,1475,532.235z"/>
	<path fill="#231F20" d="M1475-9h-25v115.75c8.4,4.24,16.737,8.588,25,13.057V-9z"/>
	<path fill="#231F20" d="M1450,2016.002h25v-135.809c-8.263,4.469-16.6,8.816-25,13.057V2016.002z"/>
	<path fill="#231F20" d="M1450,1491.869v209.633c8.438-5.424,16.773-10.997,25-16.714v-217.023
		C1466.877,1476.014,1458.541,1484.052,1450,1491.869z"/>
	<path fill="#231F20" d="M1525,589.085V352.82c-8.207-6.666-16.539-13.181-25-19.537v225.759
		C1508.618,568.807,1516.958,578.824,1525,589.085z"/>
	<path fill="#231F20" d="M1500,1440.957v225.76c8.461-6.355,16.793-12.871,25-19.537v-236.265
		C1516.958,1421.176,1508.618,1431.192,1500,1440.957z"/>
	<path fill="#231F20" d="M1500,2016.002h25v-164.757c-8.255,5.103-16.588,10.092-25,14.958V2016.002z"/>
	<path fill="#231F20" d="M1525-9h-25v142.797c8.412,4.866,16.745,9.855,25,14.958V-9z"/>
	<path fill="#231F20" d="M1550,2016.002h25v-197.768c-8.245,5.805-16.574,11.496-25,17.056V2016.002z"/>
	<path fill="#231F20" d="M1550,1376.846v249.204c8.485-7.46,16.826-15.079,25-22.874v-265.609
		C1567.115,1350.968,1558.773,1364.065,1550,1376.846z"/>
	<path fill="#231F20" d="M1575,662.434V396.824c-8.174-7.794-16.515-15.414-25-22.875v249.205
		C1558.773,635.935,1567.115,649.032,1575,662.434z"/>
	<path fill="#231F20" d="M1575-9h-25v173.71c8.426,5.559,16.755,11.251,25,17.056V-9z"/>
	<path fill="#231F20" d="M1600,1290.918v287.374c8.528-8.847,16.866-17.878,25-27.095v-318.725
		C1617.576,1252.423,1609.228,1271.923,1600,1290.918z"/>
	<path fill="#231F20" d="M1625-9h-25v208.94c8.438,6.338,16.771,12.807,25,19.403V-9z"/>
	<path fill="#231F20" d="M1625,767.527V448.802c-8.134-9.216-16.472-18.248-25-27.094v287.374
		C1609.228,728.077,1617.576,747.577,1625,767.527z"/>
	<path fill="#231F20" d="M1600,2016.002h25v-235.346c-8.229,6.597-16.562,13.065-25,19.403V2016.002z"/>
	<path fill="#231F20" d="M1675-9h-25v249.065c8.456,7.24,16.792,14.616,25,22.129V-9z"/>
	<path fill="#231F20" d="M1650,478.478v372.771c10.9,47.832,16.666,97.618,16.666,148.751c0,51.134-5.766,100.919-16.666,148.751
		v372.771c8.597-10.7,16.931-21.62,25-32.745V511.223C1666.931,500.099,1658.597,489.179,1650,478.478z"/>
	<path fill="#231F20" d="M1650,2016.002h25v-278.197c-8.208,7.514-16.544,14.89-25,22.13V2016.002z"/>
	<path fill="#231F20" d="M1700,547.688v904.625c8.717-13.462,17.055-27.19,25-41.172V588.859
		C1717.055,574.878,1708.717,561.149,1700,547.688z"/>
	<path fill="#231F20" d="M1700,1714.129v301.873h25v-327.264C1716.817,1697.35,1708.482,1705.813,1700,1714.129z"/>
	<path fill="#231F20" d="M1725,311.261V-9h-25v294.871C1708.482,294.187,1716.817,302.65,1725,311.261z"/>
	<path fill="#231F20" d="M1750,2016.002h25v-384.021c-8.147,9.979-16.48,19.802-25,29.455V2016.002z"/>
	<path fill="#231F20" d="M1775-9h-25v347.563c8.52,9.654,16.853,19.476,25,29.456V-9z"/>
	<path fill="#231F20" d="M1750,636.349v727.301c9.011-18.549,17.356-37.479,25-56.766v-613.77
		C1767.356,673.829,1759.011,654.898,1750,636.349z"/>
	<path fill="#231F20" d="M1800,2016.002h25v-450.733c-8.092,11.787-16.424,23.395-25,34.811V2016.002z"/>
	<path fill="#231F20" d="M1825-9h-25v408.921c8.576,11.415,16.908,23.023,25,34.81V-9z"/>
	<path fill="#231F20" d="M1800,1234.054c10.975-37.573,19.38-76.242,25-115.809V881.754c-5.62-39.566-14.025-78.235-25-115.809
		V1234.054z"/>
	<path fill="#231F20" d="M1850,2016.002h25v-531.531c-7.993,14.405-16.328,28.594-25,42.551V2016.002z"/>
	<path fill="#231F20" d="M1875-9h-25v481.978c8.672,13.958,17.007,28.146,25,42.551V-9z"/>
	<path fill="#231F20" d="M1925-9h-25v572.621c8.881,18.282,17.222,36.874,25,55.757V-9z"/>
	<path fill="#231F20" d="M1900,2016.002h25v-635.381c-7.778,18.884-16.119,37.477-25,55.758V2016.002z"/>
	<path fill="#231F20" d="M1975-9h-25v695.939c9.683,29.399,18.041,59.398,25,89.931V-9z"/>
	<path fill="#231F20" d="M1950,1313.061v702.941h25V1223.13C1968.041,1253.663,1959.683,1283.662,1950,1313.061z"/>
	<path fill="#231F20" d="M900,866.66V681.937c-8.487,2.666-16.821,5.673-25,8.984v198.853
		C882.522,881.251,890.896,873.498,900,866.66z"/>
	<path fill="#231F20" d="M1333.334,1000c0-25.56-2.887-50.443-8.334-74.353v148.707
		C1330.447,1050.443,1333.334,1025.56,1333.334,1000z"/>
	<path fill="#231F20" d="M1150,927.278V702.263c-8.146-4.112-16.486-7.895-25-11.341v198.854
		C1134.932,901.03,1143.371,913.632,1150,927.278z"/>
	<path fill="#231F20" d="M1100,866.66V681.937c-8.202-2.576-16.538-4.85-25-6.795v175.99
		C1083.81,855.579,1092.173,860.781,1100,866.66z"/>
	<path fill="#231F20" d="M950,840.969V670.4c-8.44,1.27-16.779,2.851-25,4.741v175.99C932.987,847.1,941.34,843.689,950,840.969z"/>
	<path fill="#231F20" d="M925,1148.868v175.991c8.221,1.89,16.56,3.471,25,4.74V1159.03
		C941.34,1156.311,932.987,1152.899,925,1148.868z"/>
	<path fill="#231F20" d="M1050,840.969V670.4c-8.238-1.239-16.575-2.178-25-2.803V835.2
		C1033.564,836.489,1041.914,838.429,1050,840.969z"/>
	<path fill="#231F20" d="M1000,833.333V666.667c-8.41,0-16.746,0.319-25,0.931V835.2C983.155,833.974,991.503,833.333,1000,833.333z
		"/>
	<path fill="#231F20" d="M675,925.649v148.701c5.667,24.873,14.114,48.685,25,71.096V854.554
		C689.114,876.965,680.667,900.777,675,925.649z"/>
	<path fill="#231F20" d="M1125,1110.225v198.854c8.514-3.446,16.854-7.229,25-11.342v-225.017
		C1143.371,1086.368,1134.932,1098.97,1125,1110.225z"/>
	<path fill="#231F20" d="M725,811.603v376.795c7.686,11.198,16.039,21.899,25,32.055V779.548
		C741.039,789.703,732.686,800.405,725,811.603z"/>
	<path fill="#231F20" d="M975,1164.799v167.604c8.254,0.611,16.59,0.931,25,0.931v-166.668
		C991.503,1166.666,983.155,1166.025,975,1164.799z"/>
	<path fill="#231F20" d="M1175,716.269v567.462c8.599-5.314,16.944-10.998,25-17.049V733.318
		C1191.944,727.267,1183.599,721.583,1175,716.269z"/>
	<path fill="#231F20" d="M1025,1164.799v167.604c8.425-0.625,16.762-1.563,25-2.804V1159.03
		C1041.914,1161.57,1033.564,1163.511,1025,1164.799z"/>
	<path fill="#231F20" d="M1075,1148.867v175.992c8.462-1.946,16.798-4.22,25-6.796V1133.34
		C1092.173,1139.219,1083.81,1144.42,1075,1148.867z"/>
	<path fill="#231F20" d="M833.333,1000c0-26.073,5.992-50.746,16.667-72.723V702.263c-8.552,4.317-16.89,8.994-25,14.006v567.462
		c8.11,5.013,16.448,9.688,25,14.006v-225.015C839.325,1050.745,833.333,1026.073,833.333,1000z"/>
	<path fill="#231F20" d="M775,754.074v491.853c7.987,7.311,16.328,14.241,25,20.756V733.318
		C791.328,739.833,782.987,746.763,775,754.074z"/>
	<path fill="#231F20" d="M1275,811.602v376.796c9.352-13.624,17.724-27.971,25-42.951V854.553
		C1292.724,839.573,1284.352,825.226,1275,811.602z"/>
	<path fill="#231F20" d="M1225,754.074v491.853c8.781-8.038,17.121-16.547,25-25.475V779.548
		C1242.121,770.621,1233.781,762.112,1225,754.074z"/>
	<path fill="#231F20" d="M875,1110.225v198.854c8.179,3.312,16.513,6.318,25,8.984V1133.34
		C890.896,1126.502,882.522,1118.749,875,1110.225z"/>
	<path fill="#231F20" d="M1425,1263.512v250.136c8.515-7.053,16.85-14.316,25-21.778V1218.19
		C1442.434,1233.766,1434.085,1248.891,1425,1263.512z"/>
	<path fill="#231F20" d="M1375,1330.719v220.544c8.475-5.776,16.812-11.739,25-17.89V1300.04
		C1392.067,1310.599,1383.726,1320.832,1375,1330.719z"/>
	<path fill="#231F20" d="M725,1417.646v189.834c8.244,3.738,16.581,7.308,25,10.716v-185.094
		C741.506,1428.188,733.168,1423.035,725,1417.646z"/>
	<path fill="#231F20" d="M1475,1156.531v311.233c8.574-8.705,16.912-17.644,25-26.808V1000
		C1500,1054.672,1491.218,1107.29,1475,1156.531z"/>
	<path fill="#231F20" d="M1325,1379.968v202.249c8.45-4.727,16.781-9.641,25-14.721v-210.432
		C1341.93,1364.977,1333.59,1372.613,1325,1379.968z"/>
	<path fill="#231F20" d="M625,1330.719v220.544c8.204,5.592,16.539,11.004,25,16.233v-210.432
		C641.354,1348.589,633.015,1339.8,625,1330.719z"/>
	<path fill="#231F20" d="M425,662.433v675.135c7.884,13.4,16.227,26.498,25,39.278V623.154
		C441.227,635.934,432.884,649.032,425,662.433z"/>
	<path fill="#231F20" d="M375,767.526v464.947c7.424,19.95,15.773,39.45,25,58.445V709.081
		C390.773,728.076,382.424,747.576,375,767.526z"/>
	<path fill="#231F20" d="M675,1379.968v202.25c8.226,4.601,16.564,9.023,25,13.282v-195.47
		C691.449,1393.607,683.113,1386.914,675,1379.968z"/>
	<path fill="#231F20" d="M333.333,1000c0,51.134,5.766,100.921,16.667,148.753V851.247C339.099,899.08,333.333,948.866,333.333,1000
		z"/>
	<path fill="#231F20" d="M1575,662.434v675.133c8.928-15.175,17.27-30.735,25-46.648V709.082
		C1592.27,693.168,1583.928,677.608,1575,662.434z"/>
	<path fill="#231F20" d="M1025,1499.382v166.819c8.374-0.309,16.708-0.774,25-1.389v-167.287
		C1041.725,1498.347,1033.39,1498.969,1025,1499.382z"/>
	<path fill="#231F20" d="M1525,589.085v821.83c8.684-11.079,17.019-22.443,25-34.069V623.155
		C1542.019,611.528,1533.684,600.164,1525,589.085z"/>
	<path fill="#231F20" d="M975,1499.382v166.819c8.296,0.307,16.629,0.465,25,0.465V1500C991.617,1500,983.282,1499.79,975,1499.382z
		"/>
	<path fill="#231F20" d="M1225,1446.625v181.104c8.412-3.016,16.748-6.193,25-9.534v-185.094
		C1241.812,1437.839,1233.474,1442.348,1225,1446.625z"/>
	<path fill="#231F20" d="M1125,1484.248v170.712c8.39-1.592,16.725-3.337,25-5.24v-172.617
		C1141.756,1479.692,1133.422,1482.08,1125,1484.248z"/>
	<path fill="#231F20" d="M1075,1494.406v168.08c8.381-0.938,16.716-2.032,25-3.278v-169.214
		C1091.739,1491.671,1083.403,1493.143,1075,1494.406z"/>
	<path fill="#231F20" d="M575,1263.512v250.137c8.171,6.769,16.507,13.345,25,19.725V1300.04
		C591.147,1288.257,582.803,1276.07,575,1263.512z"/>
	<path fill="#231F20" d="M1625,1232.473c10.091-27.118,18.47-55.067,25-83.722V851.249c-6.53-28.654-14.909-56.604-25-83.722
		V1232.473z"/>
	<path fill="#231F20" d="M775,1446.625v181.104c8.26,2.961,16.593,5.767,25,8.407v-177.742
		C791.541,1454.698,783.208,1450.768,775,1446.625z"/>
	<path fill="#231F20" d="M1275,1417.646v189.834c8.43-3.822,16.762-7.821,25-11.98V1400.03
		C1291.855,1406.148,1283.52,1412.024,1275,1417.646z"/>
	<path fill="#231F20" d="M1175,1468.51v174.948c8.401-2.28,16.734-4.726,25-7.321v-177.742
		C1191.78,1461.985,1183.442,1465.354,1175,1468.51z"/>
	<path fill="#231F20" d="M925,1494.406v168.08c8.289,0.928,16.623,1.705,25,2.326v-167.287
		C941.604,1496.691,933.269,1495.65,925,1494.406z"/>
	<path fill="#231F20" d="M875,1484.248v170.712c8.28,1.57,16.615,2.986,25,4.248v-169.214
		C891.588,1488.286,883.252,1486.371,875,1484.248z"/>
	<path fill="#231F20" d="M825,1468.51v174.948c8.271,2.243,16.605,4.331,25,6.262v-172.617
		C841.568,1474.454,833.233,1471.586,825,1468.51z"/>
	<path fill="#231F20" d="M1250,566.898V381.804c-8.252-3.34-16.588-6.518-25-9.534v181.105
		C1233.474,557.652,1241.812,562.161,1250,566.898z"/>
	<path fill="#231F20" d="M800,541.606V363.863c-8.407,2.641-16.74,5.446-25,8.407v181.105
		C783.208,549.232,791.541,545.302,800,541.606z"/>
	<path fill="#231F20" d="M600,699.96V466.627c-8.493,6.379-16.829,12.956-25,19.725v250.137
		C582.803,723.93,591.147,711.743,600,699.96z"/>
	<path fill="#231F20" d="M1000,500V333.333c-8.371,0-16.704,0.159-25,0.464v166.82C983.282,500.21,991.617,500,1000,500z"/>
	<path fill="#231F20" d="M550,781.81V508.13c-8.541,7.818-16.876,15.856-25,24.104v311.235
		C531.988,822.253,540.355,801.665,550,781.81z"/>
	<path fill="#231F20" d="M1350,642.935V432.503c-8.219-5.08-16.55-9.994-25-14.721v202.25
		C1333.59,627.386,1341.93,635.023,1350,642.935z"/>
	<path fill="#231F20" d="M1300,599.97V404.5c-8.238-4.158-16.57-8.158-25-11.98v189.834
		C1283.52,587.976,1291.855,593.852,1300,599.97z"/>
	<path fill="#231F20" d="M650,642.935V432.503c-8.461,5.229-16.796,10.642-25,16.233v220.544
		C633.015,660.2,641.354,651.412,650,642.935z"/>
	<path fill="#231F20" d="M750,566.898V381.804c-8.419,3.408-16.756,6.978-25,10.716v189.834
		C733.168,576.965,741.506,571.812,750,566.898z"/>
	<path fill="#231F20" d="M1150,522.897V350.28c-8.275-1.903-16.61-3.648-25-5.24v170.712
		C1133.422,517.92,1141.756,520.308,1150,522.897z"/>
	<path fill="#231F20" d="M1200,541.606V363.863c-8.266-2.596-16.599-5.042-25-7.321V531.49
		C1183.442,534.645,1191.78,538.015,1200,541.606z"/>
	<path fill="#231F20" d="M1050,502.475V335.187c-8.292-0.615-16.626-1.08-25-1.389v166.82
		C1033.39,501.031,1041.725,501.653,1050,502.475z"/>
	<path fill="#231F20" d="M1100,510.006V340.792c-8.284-1.246-16.619-2.34-25-3.278v168.081
		C1083.403,506.857,1091.739,508.329,1100,510.006z"/>
	<path fill="#231F20" d="M525,1156.531v311.234c8.124,8.248,16.459,16.286,25,24.104v-273.68
		C540.355,1198.336,531.988,1177.747,525,1156.531z"/>
	<path fill="#231F20" d="M1500,1000V559.042c-8.088-9.164-16.426-18.102-25-26.808v311.234C1491.218,892.71,1500,945.329,1500,1000z
		"/>
	<path fill="#231F20" d="M1450,781.81V508.13c-8.15-7.461-16.485-14.725-25-21.778v250.137
		C1434.085,751.109,1442.434,766.234,1450,781.81z"/>
	<path fill="#231F20" d="M900,510.006V340.792c-8.385,1.261-16.72,2.678-25,4.249v170.712
		C883.252,513.628,891.588,511.714,900,510.006z"/>
	<path fill="#231F20" d="M1400,699.96V466.627c-8.188-6.15-16.525-12.114-25-17.89v220.544
		C1383.726,679.168,1392.067,689.401,1400,699.96z"/>
	<path fill="#231F20" d="M850,522.897V350.28c-8.395,1.93-16.729,4.018-25,6.262V531.49
		C833.233,528.414,841.568,525.545,850,522.897z"/>
	<path fill="#231F20" d="M700,599.97V404.5c-8.436,4.258-16.774,8.681-25,13.282v202.25C683.113,613.086,691.449,606.393,700,599.97
		z"/>
	<path fill="#231F20" d="M950,502.475V335.187c-8.377,0.622-16.711,1.398-25,2.326v168.081
		C933.269,504.35,941.604,503.308,950,502.475z"/>
	<path fill="#231F20" d="M500,559.042c-8.618,9.765-16.958,19.781-25,30.042v821.832c8.042,10.261,16.382,20.276,25,30.041V1000
		V559.042z"/>
	<path fill="#231F20" d="M1875,515.529v968.942c8.752-15.773,17.091-31.81,25-48.092V563.621
		C1892.091,547.338,1883.752,531.303,1875,515.529z"/>
	<path fill="#231F20" d="M1775,1306.885v325.097c8.541-10.462,16.88-21.095,25-31.902v-366.025
		C1792.764,1258.827,1784.416,1283.125,1775,1306.885z"/>
	<path fill="#231F20" d="M2000,1000c0-76.702-8.648-151.382-25-223.13v446.26C1991.352,1151.382,2000,1076.701,2000,1000z"/>
	<path fill="#231F20" d="M1825,434.731v447.023c5.487,38.627,8.334,78.104,8.334,118.246c0,40.143-2.847,79.618-8.334,118.245
		v447.023c8.613-12.547,16.953-25.296,25-38.247V472.978C1841.953,460.027,1833.613,447.278,1825,434.731z"/>
	<path fill="#231F20" d="M75,619.378v761.243c7.779,18.884,16.119,37.476,25,55.758V563.621
		C91.119,581.902,82.779,600.495,75,619.378z"/>
	<path fill="#231F20" d="M1925,619.378v761.243c9.117-22.132,17.459-44.664,25-67.561V686.939
		C1942.459,664.042,1934.117,641.51,1925,619.378z"/>
	<path fill="#231F20" d="M750,204.828V31.505c-8.377,2.156-16.709,4.424-25,6.791v174.823
		C733.274,210.228,741.609,207.464,750,204.828z"/>
	<path fill="#231F20" d="M600,268.78V83.212c-8.396,3.668-16.727,7.457-25,11.348v188.488
		C583.242,278.151,591.578,273.396,600,268.78z"/>
	<path fill="#231F20" d="M550,298.498V106.75c-8.4,4.24-16.737,8.588-25,13.057v195.405
		C533.227,309.495,541.561,303.922,550,298.498z"/>
	<path fill="#231F20" d="M500,333.283V133.797c-8.413,4.866-16.745,9.855-25,14.958V352.82
		C483.207,346.154,491.539,339.639,500,333.283z"/>
	<path fill="#231F20" d="M650,243.521V62.981c-8.387,3.134-16.722,6.374-25,9.725v182.919
		C633.256,251.457,641.589,247.419,650,243.521z"/>
	<path fill="#231F20" d="M1700,547.688V285.871c-8.195-8.035-16.532-15.926-25-23.677v249.029
		C1683.646,523.144,1691.981,535.303,1700,547.688z"/>
	<path fill="#231F20" d="M450,373.95V164.71c-8.426,5.559-16.755,11.251-25,17.056v215.059
		C433.174,389.03,441.515,381.41,450,373.95z"/>
	<path fill="#231F20" d="M1800,765.946V399.921c-8.12-10.808-16.459-21.441-25-31.902v325.096
		C1784.416,716.875,1792.764,741.173,1800,765.946z"/>
	<path fill="#231F20" d="M1650,478.478V240.065c-8.221-7.038-16.552-13.95-25-20.722v229.459
		C1633.557,458.497,1641.896,468.39,1650,478.478z"/>
	<path fill="#231F20" d="M1600,421.708V199.94c-8.234-6.186-16.571-12.241-25-18.175v215.059
		C1583.511,404.939,1591.839,413.243,1600,421.708z"/>
	<path fill="#231F20" d="M1750,636.349V338.563c-8.167-9.253-16.5-18.358-25-27.302v277.599
		C1733.824,604.386,1742.165,620.221,1750,636.349z"/>
	<path fill="#231F20" d="M225,1306.884v325.098c8.147,9.979,16.48,19.802,25,29.455v-297.787
		C240.99,1345.101,232.644,1326.17,225,1306.884z"/>
	<path fill="#231F20" d="M175,1118.242v447.026c8.091,11.786,16.424,23.395,25,34.81v-366.025
		C189.025,1196.479,180.62,1157.81,175,1118.242z"/>
	<path fill="#231F20" d="M275,1411.14v277.599c8.183,8.611,16.518,17.075,25,25.39v-261.815
		C291.284,1438.851,282.946,1425.121,275,1411.14z"/>
	<path fill="#231F20" d="M400,421.708V199.94c-8.438,6.338-16.772,12.807-25,19.403v229.459
		C383.134,439.586,391.472,430.555,400,421.708z"/>
	<path fill="#231F20" d="M200,765.947V399.921c-8.576,11.415-16.909,23.023-25,34.81v447.027
		C180.62,842.19,189.025,803.521,200,765.947z"/>
	<path fill="#231F20" d="M350,478.479V240.065c-8.456,7.24-16.792,14.616-25,22.129v249.029
		C333.069,500.099,341.403,489.179,350,478.479z"/>
	<path fill="#231F20" d="M325,1488.776v249.028c8.208,7.514,16.544,14.89,25,22.13v-238.413
		C341.403,1510.821,333.069,1499.9,325,1488.776z"/>
	<path fill="#231F20" d="M300,547.688V285.871c-8.482,8.315-16.817,16.779-25,25.39V588.86
		C282.946,574.878,291.284,561.149,300,547.688z"/>
	<path fill="#231F20" d="M250,636.35V338.563c-8.52,9.653-16.853,19.476-25,29.455v325.097
		C232.644,673.829,240.99,654.898,250,636.35z"/>
	<path fill="#231F20" d="M950,168.157V1.236c-8.361,0.412-16.694,0.929-25,1.544v167.218
		C933.298,169.258,941.634,168.652,950,168.157z"/>
	<path fill="#231F20" d="M900,172.621V4.949c-8.364,0.831-16.698,1.765-25,2.8v168.24C883.293,174.741,891.628,173.622,900,172.621z
		"/>
	<path fill="#231F20" d="M1000,166.667V0c-8.358,0-16.691,0.107-25,0.312v166.738C983.305,166.805,991.636,166.667,1000,166.667z"/>
	<path fill="#231F20" d="M1050,168.157V1.236c-8.308-0.409-16.641-0.72-25-0.925v166.738
		C1033.365,167.296,1041.698,167.666,1050,168.157z"/>
	<path fill="#231F20" d="M800,190.831V20.013c-8.372,1.699-16.706,3.5-25,5.407V197.41C783.283,195.093,791.615,192.896,800,190.831
		z"/>
	<path fill="#231F20" d="M850,180.143V11.187c-8.368,1.259-16.702,2.62-25,4.085v169.814
		C833.289,183.315,841.622,181.665,850,180.143z"/>
	<path fill="#231F20" d="M125,515.529v968.942c7.993,14.405,16.328,28.594,25,42.551V472.978
		C141.328,486.936,132.993,501.124,125,515.529z"/>
	<path fill="#231F20" d="M700,222.315V45.794c-8.382,2.632-16.715,5.376-25,8.223v178.408
		C683.264,228.921,691.602,225.558,700,222.315z"/>
	<path fill="#231F20" d="M1550,373.95V164.71c-8.247-5.441-16.585-10.754-25-15.955V352.82
		C1533.473,359.702,1541.808,366.747,1550,373.95z"/>
	<path fill="#231F20" d="M1100,172.621V4.949c-8.304-0.824-16.638-1.549-25-2.169v167.218
		C1083.371,170.745,1091.702,171.629,1100,172.621z"/>
	<path fill="#231F20" d="M1350,243.521V62.981c-8.282-3.095-16.615-6.084-25-8.964v178.408
		C1333.406,235.988,1341.738,239.692,1350,243.521z"/>
	<path fill="#231F20" d="M1400,268.78V83.212c-8.273-3.615-16.611-7.11-25-10.506v182.919
		C1383.416,259.873,1391.751,264.258,1400,268.78z"/>
	<path fill="#231F20" d="M1450,298.498V106.75c-8.27-4.174-16.602-8.241-25-12.19v188.488
		C1433.43,288.055,1441.766,293.205,1450,298.498z"/>
	<path fill="#231F20" d="M1500,333.283V133.797c-8.26-4.778-16.593-9.444-25-13.99v195.405
		C1483.449,321.084,1491.782,327.11,1500,333.283z"/>
	<path fill="#231F20" d="M1300,222.315V45.794c-8.288-2.603-16.62-5.106-25-7.498v174.823
		C1283.396,216.054,1291.729,219.123,1300,222.315z"/>
	<path fill="#231F20" d="M1200,190.831V20.013c-8.296-1.685-16.631-3.264-25-4.741v169.814
		C1183.38,186.877,1191.715,188.79,1200,190.831z"/>
	<path fill="#231F20" d="M1250,204.828V31.505c-8.292-2.134-16.627-4.16-25-6.085V197.41
		C1233.387,199.757,1241.722,202.229,1250,204.828z"/>
	<path fill="#231F20" d="M1150,180.143V11.187c-8.301-1.249-16.634-2.395-25-3.438v168.24
		C1133.375,177.249,1141.709,178.635,1150,180.143z"/>
	<path fill="#231F20" d="M575,1716.953v188.487c8.273,3.891,16.604,7.679,25,11.348v-185.567
		C591.578,1726.604,583.242,1721.85,575,1716.953z"/>
	<path fill="#231F20" d="M1025,1832.951v166.737c8.359-0.205,16.692-0.516,25-0.925v-166.92
		C1041.698,1832.335,1033.365,1832.705,1025,1832.951z"/>
	<path fill="#231F20" d="M1075,1830.003v167.217c8.362-0.62,16.696-1.345,25-2.169v-167.672
		C1091.702,1828.372,1083.371,1829.256,1075,1830.003z"/>
	<path fill="#231F20" d="M975,1832.951v166.737c8.309,0.204,16.642,0.312,25,0.312v-166.666
		C991.636,1833.334,983.305,1833.196,975,1832.951z"/>
	<path fill="#231F20" d="M1125,1824.012v168.239c8.366-1.043,16.699-2.189,25-3.438v-168.955
		C1141.709,1821.365,1133.375,1822.752,1125,1824.012z"/>
	<path fill="#231F20" d="M1225,1802.59v171.991c8.373-1.926,16.708-3.952,25-6.086v-173.323
		C1241.722,1797.772,1233.387,1800.244,1225,1802.59z"/>
	<path fill="#231F20" d="M1175,1814.914v169.814c8.369-1.478,16.704-3.057,25-4.741V1809.17
		C1191.715,1811.21,1183.38,1813.123,1175,1814.914z"/>
	<path fill="#231F20" d="M675,1767.575v178.408c8.285,2.846,16.618,5.59,25,8.223v-176.521
		C691.602,1774.443,683.264,1771.079,675,1767.575z"/>
	<path fill="#231F20" d="M725,1786.881v174.823c8.291,2.366,16.623,4.635,25,6.791v-173.323
		C741.609,1792.536,733.274,1789.772,725,1786.881z"/>
	<path fill="#231F20" d="M825,1814.914v169.814c8.298,1.465,16.632,2.825,25,4.084v-168.954
		C841.622,1818.335,833.289,1816.686,825,1814.914z"/>
	<path fill="#231F20" d="M775,1802.59v171.991c8.294,1.906,16.628,3.707,25,5.406V1809.17
		C791.615,1807.104,783.283,1804.907,775,1802.59z"/>
	<path fill="#231F20" d="M875,1824.012v168.239c8.302,1.035,16.636,1.969,25,2.8V1827.38
		C891.628,1826.378,883.293,1825.259,875,1824.012z"/>
	<path fill="#231F20" d="M1375,1744.375v182.919c8.389-3.396,16.727-6.891,25-10.506v-185.567
		C1391.751,1735.742,1383.416,1740.127,1375,1744.375z"/>
	<path fill="#231F20" d="M1625,1551.197v229.459c8.448-6.772,16.779-13.684,25-20.722v-238.413
		C1641.896,1531.61,1633.557,1541.503,1625,1551.197z"/>
	<path fill="#231F20" d="M1575,1603.176v215.059c8.429-5.935,16.766-11.989,25-18.175v-221.768
		C1591.839,1586.758,1583.511,1595.061,1575,1603.176z"/>
	<path fill="#231F20" d="M25,776.87v446.26c6.958,30.533,15.317,60.532,25,89.931V686.939C40.317,716.338,31.958,746.337,25,776.87z
		"/>
	<path fill="#231F20" d="M1275,1786.881v174.823c8.38-2.392,16.712-4.896,25-7.498v-176.521
		C1291.729,1780.878,1283.396,1783.947,1275,1786.881z"/>
	<path fill="#231F20" d="M1525,1647.18v204.065c8.415-5.201,16.753-10.514,25-15.955v-209.24
		C1541.808,1633.253,1533.473,1640.298,1525,1647.18z"/>
	<path fill="#231F20" d="M1675,1488.776v249.028c8.468-7.751,16.805-15.642,25-23.676v-261.816
		C1691.981,1464.696,1683.646,1476.856,1675,1488.776z"/>
	<path fill="#231F20" d="M1475,1684.788v195.405c8.407-4.547,16.74-9.212,25-13.99v-199.486
		C1491.782,1672.89,1483.449,1678.916,1475,1684.788z"/>
	<path fill="#231F20" d="M625,1744.375v182.919c8.278,3.352,16.613,6.591,25,9.725v-180.54
		C641.589,1752.581,633.256,1748.543,625,1744.375z"/>
	<path fill="#231F20" d="M1325,1767.575v178.408c8.385-2.88,16.718-5.869,25-8.965v-180.54
		C1341.738,1760.308,1333.406,1764.012,1325,1767.575z"/>
	<path fill="#231F20" d="M1425,1716.953v188.487c8.398-3.949,16.73-8.017,25-12.19v-191.748
		C1441.766,1706.796,1433.43,1711.945,1425,1716.953z"/>
	<path fill="#231F20" d="M925,1830.003v167.217c8.306,0.615,16.639,1.132,25,1.544v-166.92
		C941.634,1831.349,933.298,1830.743,925,1830.003z"/>
	<path fill="#231F20" d="M475,1647.18v204.065c8.255,5.103,16.587,10.092,25,14.958v-199.486
		C491.539,1660.361,483.207,1653.846,475,1647.18z"/>
	<path fill="#231F20" d="M1725,1411.141v277.598c8.5-8.944,16.833-18.048,25-27.302V1363.65
		C1742.165,1379.778,1733.824,1395.614,1725,1411.141z"/>
	<path fill="#231F20" d="M425,1603.176v215.059c8.245,5.805,16.574,11.496,25,17.056v-209.24
		C441.515,1618.59,433.174,1610.971,425,1603.176z"/>
	<path fill="#231F20" d="M375,1551.197v229.459c8.228,6.596,16.562,13.064,25,19.403v-221.769
		C391.472,1569.445,383.134,1560.414,375,1551.197z"/>
	<path fill="#231F20" d="M525,1684.788v195.405c8.263,4.469,16.6,8.816,25,13.057v-191.748
		C541.561,1696.078,533.227,1690.505,525,1684.788z"/>
</g>
</svg>
