<?xml version="1.0" encoding="utf-8"?>
<!-- Generator: Adobe Illustrator 16.0.0, SVG Export Plug-In . SVG Version: 6.00 Build 0)  -->
<!DOCTYPE svg PUBLIC "-//W3C//DTD SVG 1.1//EN" "http://www.w3.org/Graphics/SVG/1.1/DTD/svg11.dtd">
<svg version="1.1" id="Layer_1" xmlns="http://www.w3.org/2000/svg" xmlns:xlink="http://www.w3.org/1999/xlink" x="0px" y="0px"
	 width="1000px" height="1000px" viewBox="1000 1000 1000 1000" enable-background="new 1000 1000 1000 1000" xml:space="preserve">
<rect x="750" y="750" fill="#FFFFFF" width="1500" height="1500"/>
<g>
	<polygon points="996.644,943.982 1500.413,1499.607 1499.999,1500 970.06,969.278 	"/>
	<polygon points="944.568,995.997 1500.372,1499.568 1499.999,1500 920.592,1023.777 	"/>
	<polygon points="897.843,1052.866 1500.328,1499.533 1499.999,1500 876.705,1082.863 	"/>
	<polygon points="856.915,1114.041 1500.281,1499.503 1499.999,1500 838.818,1145.965 	"/>
	<polygon points="822.181,1178.933 1500.231,1499.479 1499.999,1500 807.3,1212.478 	"/>
	<polygon points="793.975,1246.917 1500.179,1499.459 1499.999,1500 782.455,1281.758 	"/>
	<polygon points="772.568,1317.338 1500.126,1499.443 1499.999,1500 764.518,1353.141 	"/>
	<polygon points="758.167,1389.519 1500.07,1499.434 1499.999,1500 753.665,1425.938 	"/>
	<polygon points="750.911,1462.763 1500.015,1499.43 1499.999,1500 750,1499.447 	"/>
	<polygon points="750.868,1536.364 1499.959,1499.431 1499.999,1500 753.558,1572.964 	"/>
	<polygon points="758.04,1609.617 1499.903,1499.438 1499.999,1500 764.303,1645.775 	"/>
	<polygon points="772.357,1681.814 1499.849,1499.449 1499.999,1500 782.135,1717.186 	"/>
	<polygon points="793.683,1752.261 1499.795,1499.468 1499.999,1500 806.878,1786.503 	"/>
	<polygon points="821.81,1820.277 1499.744,1499.49 1499.999,1500 838.299,1853.061 	"/>
	<polygon points="856.468,1885.21 1499.696,1499.519 1499.999,1500 876.092,1916.219 	"/>
	<polygon points="897.324,1946.434 1499.65,1499.551 1499.999,1500 919.893,1975.369 	"/>
	<polygon points="943.983,2003.355 1499.608,1499.587 1499.999,1500 969.28,2029.939 	"/>
	<polygon points="996,2055.432 1499.569,1499.626 1499.999,1500 1023.778,2079.407 	"/>
	<polygon points="1052.868,2102.158 1499.536,1499.672 1499.999,1500 1082.863,2123.297 	"/>
	<polygon points="1114.042,2143.087 1499.505,1499.719 1499.999,1500 1145.966,2161.182 	"/>
	<polygon points="1178.935,2177.818 1499.48,1499.769 1499.999,1500 1212.478,2192.698 	"/>
	<polygon points="1246.919,2206.025 1499.459,1499.82 1499.999,1500 1281.759,2217.545 	"/>
	<polygon points="1317.34,2227.432 1499.445,1499.874 1499.999,1500 1353.142,2235.48 	"/>
	<polygon points="1389.521,2241.834 1499.435,1499.93 1499.999,1500 1425.939,2246.335 	"/>
	<polygon points="1462.765,2249.09 1499.431,1499.985 1499.999,1500 1499.449,2250 	"/>
	<polygon points="1536.369,2249.133 1499.433,1500.041 1499.999,1500 1572.964,2246.443 	"/>
	<polygon points="1609.62,2241.961 1499.439,1500.096 1499.999,1500 1645.777,2235.697 	"/>
	<polygon points="1681.817,2227.644 1499.452,1500.151 1499.999,1500 1717.186,2217.864 	"/>
	<polygon points="1752.264,2206.318 1499.469,1500.204 1499.999,1500 1786.502,2193.121 	"/>
	<polygon points="1820.281,2178.191 1499.491,1500.255 1499.999,1500 1853.061,2161.699 	"/>
	<polygon points="1885.213,2143.532 1499.519,1500.303 1499.999,1500 1916.221,2123.909 	"/>
	<polygon points="1946.436,2102.676 1499.551,1500.349 1499.999,1500 1975.369,2080.107 	"/>
	<polygon points="2003.358,2056.016 1499.587,1500.391 1499.999,1500 2029.939,2030.719 	"/>
	<polygon points="2055.434,2004 1499.628,1500.429 1499.999,1500 2079.407,1976.221 	"/>
	<polygon points="2102.16,1947.131 1499.672,1500.463 1499.999,1500 2123.297,1917.136 	"/>
	<polygon points="2143.087,1885.957 1499.719,1500.494 1499.999,1500 2161.181,1854.032 	"/>
	<polygon points="2177.821,1821.062 1499.769,1500.519 1499.999,1500 2192.698,1787.521 	"/>
	<polygon points="2206.025,1753.08 1499.821,1500.539 1499.999,1500 2217.545,1718.24 	"/>
	<polygon points="2227.434,1682.658 1499.874,1500.554 1499.999,1500 2235.48,1646.857 	"/>
	<polygon points="2241.835,1610.479 1499.93,1500.564 1499.999,1500 2246.335,1574.062 	"/>
	<polygon points="2249.09,1537.233 1499.985,1500.568 1499.999,1500 2250,1500.551 	"/>
	<polygon points="2249.133,1463.631 1500.041,1500.566 1499.999,1500 2246.443,1427.036 	"/>
	<polygon points="2241.961,1390.378 1500.096,1500.56 1499.999,1500 2235.697,1354.223 	"/>
	<polygon points="2227.645,1318.181 1500.15,1500.548 1499.999,1500 2217.864,1282.814 	"/>
	<polygon points="2206.318,1247.735 1500.204,1500.531 1499.999,1500 2193.121,1213.497 	"/>
	<polygon points="2178.191,1179.719 1500.255,1500.51 1499.999,1500 2161.7,1146.938 	"/>
	<polygon points="2143.532,1114.787 1500.304,1500.48 1499.999,1500 2123.908,1083.781 	"/>
	<polygon points="2102.678,1053.564 1500.35,1500.448 1499.999,1500 2080.107,1024.631 	"/>
	<polygon points="2056.017,996.642 1500.393,1500.413 1499.999,1500 2030.719,970.06 	"/>
	<polygon points="2004,944.566 1500.431,1500.372 1499.999,1500 1976.221,920.593 	"/>
	<polygon points="1947.132,897.839 1500.466,1500.328 1499.999,1500 1917.136,876.705 	"/>
	<polygon points="1885.957,856.913 1500.495,1500.281 1499.999,1500 1854.032,838.818 	"/>
	<polygon points="1821.064,822.18 1500.521,1500.231 1499.999,1500 1787.521,807.302 	"/>
	<polygon points="1753.08,793.974 1500.541,1500.18 1499.999,1500 1718.241,782.455 	"/>
	<polygon points="1682.66,772.567 1500.557,1500.126 1499.999,1500 1646.859,764.52 	"/>
	<polygon points="1610.479,758.167 1500.565,1500.071 1499.999,1500 1574.062,753.667 	"/>
	<polygon points="1537.233,750.909 1500.57,1500.016 1499.999,1500 1500.551,750 	"/>
	<polygon points="1463.631,750.867 1500.569,1499.96 1499.999,1500 1427.036,753.558 	"/>
	<polygon points="1390.378,758.04 1500.562,1499.903 1499.999,1500 1354.224,764.304 	"/>
	<polygon points="1318.181,772.357 1500.551,1499.85 1499.999,1500 1282.813,782.135 	"/>
	<polygon points="1247.735,793.683 1500.533,1499.796 1499.999,1500 1213.498,806.879 	"/>
	<polygon points="1179.719,821.809 1500.511,1499.745 1499.999,1500 1146.939,838.299 	"/>
	<polygon points="1114.788,856.468 1500.483,1499.696 1499.999,1500 1083.781,876.092 	"/>
	<polygon points="1053.564,897.324 1500.451,1499.651 1499.999,1500 1024.631,919.893 	"/>
</g>
</svg>
