<?xml version="1.0" encoding="utf-8"?>
<!-- Generator: Adobe Illustrator 16.0.0, SVG Export Plug-In . SVG Version: 6.00 Build 0)  -->
<!DOCTYPE svg PUBLIC "-//W3C//DTD SVG 1.1//EN" "http://www.w3.org/Graphics/SVG/1.1/DTD/svg11.dtd">
<svg version="1.1" id="Layer_1" xmlns="http://www.w3.org/2000/svg" xmlns:xlink="http://www.w3.org/1999/xlink" x="0px" y="0px"
	 width="3000px" height="3000px" viewBox="0 0 3000 3000" enable-background="new 0 0 3000 3000" xml:space="preserve">
<rect x="-28.374" y="-30.627" fill="#FFFFFF" width="3059.75" height="3064.254"/>
<g>
	<polygon points="-177.854,-353.392 1501.377,1498.689 1499.996,1499.999 -266.467,-269.072 	"/>
	<polygon points="-351.438,-180.01 1501.24,1498.561 1499.996,1499.999 -431.36,-87.409 	"/>
	<polygon points="-507.19,9.554 1501.094,1498.443 1499.996,1499.999 -577.651,109.544 	"/>
	<polygon points="-643.616,213.47 1500.938,1498.345 1499.996,1499.999 -703.938,319.883 	"/>
	<polygon points="-759.396,429.775 1500.771,1498.262 1499.996,1499.999 -808.999,541.591 	"/>
	<polygon points="-853.416,656.389 1500.596,1498.197 1499.996,1499.999 -891.816,772.526 	"/>
	<polygon points="-924.772,891.127 1500.419,1498.145 1499.996,1499.999 -951.606,1010.469 	"/>
	<polygon points="-972.775,1131.729 1500.234,1498.111 1499.996,1499.999 -987.783,1253.125 	"/>
	<polygon points="-996.965,1375.875 1500.05,1498.1 1499.996,1499.999 -1000,1498.158 	"/>
	<polygon points="-997.107,1621.215 1499.862,1498.104 1499.996,1499.999 -988.142,1743.212 	"/>
	<polygon points="-973.201,1865.393 1499.677,1498.125 1499.996,1499.999 -952.324,1985.92 	"/>
	<polygon points="-925.476,2106.05 1499.497,1498.164 1499.996,1499.999 -892.884,2223.95 	"/>
	<polygon points="-854.392,2340.869 1499.316,1498.227 1499.996,1499.999 -810.405,2455.01 	"/>
	<polygon points="-760.635,2567.593 1499.146,1498.301 1499.996,1499.999 -705.671,2676.87 	"/>
	<polygon points="-645.107,2784.033 1498.988,1498.395 1499.996,1499.999 -579.695,2887.396 	"/>
	<polygon points="-508.919,2988.11 1498.833,1498.502 1499.996,1499.999 -433.691,3084.562 	"/>
	<polygon points="-353.389,3177.854 1498.695,1498.623 1499.996,1499.999 -269.065,3266.467 	"/>
	<polygon points="-180.002,3351.439 1498.564,1498.755 1499.996,1499.999 -87.405,3431.357 	"/>
	<polygon points="9.561,3507.195 1498.452,1498.905 1499.996,1499.999 109.544,3577.655 	"/>
	<polygon points="213.475,3643.622 1498.35,1499.062 1499.996,1499.999 319.887,3703.938 	"/>
	<polygon points="429.782,3759.396 1498.267,1499.229 1499.996,1499.999 541.594,3808.994 	"/>
	<polygon points="656.396,3853.418 1498.198,1499.399 1499.996,1499.999 772.529,3891.818 	"/>
	<polygon points="891.132,3924.773 1498.149,1499.58 1499.996,1499.999 1010.474,3951.604 	"/>
	<polygon points="1131.734,3972.778 1498.116,1499.766 1499.996,1499.999 1253.13,3987.783 	"/>
	<polygon points="1375.884,3996.965 1498.102,1499.95 1499.996,1499.999 1498.164,4000 	"/>
	<polygon points="1621.229,3997.107 1498.11,1500.136 1499.996,1499.999 1743.213,3988.145 	"/>
	<polygon points="1865.4,3973.203 1498.13,1500.318 1499.996,1499.999 1985.926,3952.324 	"/>
	<polygon points="2106.059,3925.479 1498.174,1500.503 1499.996,1499.999 2223.953,3892.881 	"/>
	<polygon points="2340.879,3854.395 1498.229,1500.679 1499.996,1499.999 2455.008,3810.402 	"/>
	<polygon points="2567.605,3760.637 1498.305,1500.849 1499.996,1499.999 2676.869,3705.664 	"/>
	<polygon points="2784.043,3645.107 1498.395,1501.01 1499.996,1499.999 2887.4,3579.697 	"/>
	<polygon points="2988.117,3508.92 1498.502,1501.162 1499.996,1499.999 3084.562,3433.689 	"/>
	<polygon points="3177.86,3353.384 1498.623,1501.304 1499.996,1499.999 3266.467,3269.062 	"/>
	<polygon points="3351.444,3180 1498.76,1501.43 1499.996,1499.999 3431.357,3087.402 	"/>
	<polygon points="3507.199,2990.438 1498.906,1501.544 1499.996,1499.999 3577.655,2890.453 	"/>
	<polygon points="3643.623,2786.521 1499.062,1501.646 1499.996,1499.999 3703.936,2680.107 	"/>
	<polygon points="3759.404,2570.21 1499.229,1501.729 1499.996,1499.999 3808.994,2458.403 	"/>
	<polygon points="3853.42,2343.6 1499.404,1501.797 1499.996,1499.999 3891.818,2227.469 	"/>
	<polygon points="3924.777,2108.861 1499.581,1501.846 1499.996,1499.999 3951.604,1989.526 	"/>
	<polygon points="3972.782,1868.262 1499.766,1501.88 1499.996,1499.999 3987.782,1746.874 	"/>
	<polygon points="3996.968,1624.111 1499.95,1501.895 1499.996,1499.999 4000,1501.836 	"/>
	<polygon points="3997.109,1378.77 1500.137,1501.89 1499.996,1499.999 3988.145,1256.786 	"/>
	<polygon points="3973.205,1134.594 1500.318,1501.866 1499.996,1499.999 3952.324,1014.076 	"/>
	<polygon points="3925.48,893.938 1500.502,1501.826 1499.996,1499.999 3892.881,776.049 	"/>
	<polygon points="3854.396,659.116 1500.68,1501.771 1499.996,1499.999 3810.402,544.989 	"/>
	<polygon points="3760.637,432.396 1500.85,1501.699 1499.996,1499.999 3705.668,323.129 	"/>
	<polygon points="3645.107,215.955 1501.012,1501.602 1499.996,1499.999 3579.695,112.604 	"/>
	<polygon points="3508.924,11.88 1501.166,1501.494 1499.996,1499.999 3433.691,-84.562 	"/>
	<polygon points="3353.388,-177.861 1501.309,1501.376 1499.996,1499.999 3269.062,-266.467 	"/>
	<polygon points="3180.002,-351.447 1501.436,1501.24 1499.996,1499.999 3087.402,-431.357 	"/>
	<polygon points="2990.439,-507.202 1501.553,1501.095 1499.996,1499.999 2890.453,-577.651 	"/>
	<polygon points="2786.521,-643.623 1501.65,1500.938 1499.996,1499.999 2680.107,-703.938 	"/>
	<polygon points="2570.215,-759.401 1501.734,1500.771 1499.996,1499.999 2458.406,-808.994 	"/>
	<polygon points="2343.602,-853.421 1501.803,1500.6 1499.996,1499.999 2227.471,-891.816 	"/>
	<polygon points="2108.865,-924.777 1501.854,1500.42 1499.996,1499.999 1989.529,-951.602 	"/>
	<polygon points="1868.262,-972.778 1501.885,1500.238 1499.996,1499.999 1746.873,-987.778 	"/>
	<polygon points="1624.111,-996.97 1501.9,1500.053 1499.996,1499.999 1501.836,-1000 	"/>
	<polygon points="1378.771,-997.109 1501.898,1499.867 1499.996,1499.999 1256.788,-988.14 	"/>
	<polygon points="1134.595,-973.201 1501.875,1499.678 1499.996,1499.999 1014.078,-952.321 	"/>
	<polygon points="893.938,-925.477 1501.836,1499.498 1499.996,1499.999 776.045,-892.884 	"/>
	<polygon points="659.116,-854.392 1501.777,1499.321 1499.996,1499.999 544.992,-810.402 	"/>
	<polygon points="432.396,-760.637 1501.703,1499.15 1499.996,1499.999 323.13,-705.671 	"/>
	<polygon points="215.959,-645.107 1501.611,1498.988 1499.996,1499.999 112.604,-579.694 	"/>
	<polygon points="11.88,-508.919 1501.504,1498.837 1499.996,1499.999 -84.562,-433.691 	"/>
</g>
</svg>
