<?xml version="1.0" encoding="utf-8"?>
<!-- Generator: Adobe Illustrator 16.0.0, SVG Export Plug-In . SVG Version: 6.00 Build 0)  -->
<!DOCTYPE svg PUBLIC "-//W3C//DTD SVG 1.1//EN" "http://www.w3.org/Graphics/SVG/1.1/DTD/svg11.dtd">
<svg version="1.1" id="Layer_1" xmlns="http://www.w3.org/2000/svg" xmlns:xlink="http://www.w3.org/1999/xlink" x="0px" y="0px"
	 width="2000px" height="2000px" viewBox="0 0 2000 2000" enable-background="new 0 0 2000 2000" xml:space="preserve">
<g>
	<polygon points="328.46,259.024 1000.151,999.856 999.6,1000.38 293.014,292.752 	"/>
	<polygon points="259.026,328.377 1000.098,999.805 999.6,1000.38 227.057,365.417 	"/>
	<polygon points="196.725,404.202 1000.039,999.759 999.6,1000.38 168.54,444.198 	"/>
	<polygon points="142.155,485.769 999.977,999.719 999.6,1000.38 118.026,528.334 	"/>
	<polygon points="95.843,572.291 999.91,999.686 999.6,1000.38 76.002,617.017 	"/>
	<polygon points="58.235,662.936 999.84,999.659 999.6,1000.38 42.874,709.392 	"/>
	<polygon points="29.693,756.831 999.769,999.639 999.6,1000.38 18.958,804.568 	"/>
	<polygon points="10.491,853.071 999.695,999.625 999.6,1000.38 4.488,901.631 	"/>
	<polygon points="0.815,950.73 999.621,999.62 999.6,1000.38 -0.399,999.644 	"/>
	<polygon points="0.758,1048.867 999.546,999.622 999.6,1000.38 4.344,1097.665 	"/>
	<polygon points="10.321,1146.538 999.472,999.631 999.6,1000.38 18.672,1194.749 	"/>
	<polygon points="29.411,1242.801 999.399,999.647 999.6,1000.38 42.447,1289.961 	"/>
	<polygon points="57.844,1336.729 999.328,999.671 999.6,1000.38 75.439,1382.385 	"/>
	<polygon points="95.347,1427.418 999.26,999.701 999.6,1000.38 117.333,1471.129 	"/>
	<polygon points="141.558,1513.994 999.196,999.738 999.6,1000.38 167.723,1555.339 	"/>
	<polygon points="196.033,1595.624 999.135,999.781 999.6,1000.38 226.124,1634.205 	"/>
	<polygon points="258.246,1671.522 999.079,999.83 999.6,1000.38 291.974,1706.967 	"/>
	<polygon points="327.6,1740.956 999.027,999.883 999.6,1000.38 364.639,1772.924 	"/>
	<polygon points="403.425,1803.258 998.981,999.942 999.6,1000.38 443.419,1831.441 	"/>
	<polygon points="484.991,1857.828 998.941,1000.005 999.6,1000.38 527.556,1881.955 	"/>
	<polygon points="571.514,1904.139 998.908,1000.071 999.6,1000.38 616.238,1923.979 	"/>
	<polygon points="662.159,1941.747 998.881,1000.141 999.6,1000.38 708.613,1957.107 	"/>
	<polygon points="756.054,1970.289 998.861,1000.213 999.6,1000.38 803.79,1981.022 	"/>
	<polygon points="852.295,1989.491 998.848,1000.287 999.6,1000.38 900.853,1995.493 	"/>
	<polygon points="949.954,1999.166 998.842,1000.36 999.6,1000.38 998.867,2000.38 	"/>
	<polygon points="1048.092,1999.223 998.845,1000.435 999.6,1000.38 1096.887,1995.637 	"/>
	<polygon points="1145.762,1989.661 998.854,1000.509 999.6,1000.38 1193.971,1981.309 	"/>
	<polygon points="1242.024,1970.57 998.87,1000.582 999.6,1000.38 1289.182,1957.533 	"/>
	<polygon points="1335.953,1942.137 998.893,1000.652 999.6,1000.38 1381.604,1924.541 	"/>
	<polygon points="1426.643,1904.635 998.923,1000.72 999.6,1000.38 1470.349,1882.647 	"/>
	<polygon points="1513.218,1858.423 998.959,1000.785 999.6,1000.38 1554.56,1832.259 	"/>
	<polygon points="1594.848,1803.947 999.002,1000.846 999.6,1000.38 1633.426,1773.856 	"/>
	<polygon points="1670.744,1741.733 999.051,1000.902 999.6,1000.38 1706.188,1708.006 	"/>
	<polygon points="1740.178,1672.38 999.105,1000.953 999.6,1000.38 1772.145,1635.341 	"/>
	<polygon points="1802.48,1596.555 999.164,1000.999 999.6,1000.38 1830.662,1556.562 	"/>
	<polygon points="1857.05,1514.988 999.226,1001.039 999.6,1000.38 1881.175,1472.425 	"/>
	<polygon points="1903.361,1428.465 999.292,1001.072 999.6,1000.38 1923.199,1383.742 	"/>
	<polygon points="1940.969,1337.82 999.362,1001.1 999.6,1000.38 1956.328,1291.368 	"/>
	<polygon points="1969.512,1243.926 999.434,1001.12 999.6,1000.38 1980.242,1196.191 	"/>
	<polygon points="1988.713,1147.685 999.507,1001.133 999.6,1000.38 1994.713,1099.13 	"/>
	<polygon points="1998.388,1050.025 999.581,1001.139 999.6,1000.38 1999.601,1001.115 	"/>
	<polygon points="1998.444,951.888 999.655,1001.137 999.6,1000.38 1994.857,903.095 	"/>
	<polygon points="1988.883,854.218 999.729,1001.128 999.6,1000.38 1980.529,806.011 	"/>
	<polygon points="1969.793,757.956 999.802,1001.111 999.6,1000.38 1956.754,710.8 	"/>
	<polygon points="1941.359,664.027 999.873,1001.089 999.6,1000.38 1923.762,618.376 	"/>
	<polygon points="1903.855,573.339 999.941,1001.06 999.6,1000.38 1881.868,529.632 	"/>
	<polygon points="1857.645,486.763 1000.006,1001.022 999.6,1000.38 1831.479,445.422 	"/>
	<polygon points="1803.169,405.133 1000.067,1000.979 999.6,1000.38 1773.077,366.556 	"/>
	<polygon points="1740.955,329.236 1000.124,1000.931 999.6,1000.38 1707.227,293.794 	"/>
	<polygon points="1671.602,259.802 1000.175,1000.877 999.6,1000.38 1634.562,227.837 	"/>
	<polygon points="1595.776,197.5 1000.222,1000.819 999.6,1000.38 1555.782,169.32 	"/>
	<polygon points="1514.21,142.931 1000.262,1000.756 999.6,1000.38 1471.645,118.806 	"/>
	<polygon points="1427.687,96.62 1000.295,1000.689 999.6,1000.38 1382.963,76.783 	"/>
	<polygon points="1337.041,59.012 1000.322,1000.62 999.6,1000.38 1290.589,43.654 	"/>
	<polygon points="1243.146,30.47 1000.343,1000.549 999.6,1000.38 1195.412,19.74 	"/>
	<polygon points="1146.906,11.269 1000.355,1000.476 999.6,1000.38 1098.35,5.269 	"/>
	<polygon points="1049.246,1.593 1000.361,1000.401 999.6,1000.38 1000.336,0.381 	"/>
	<polygon points="951.109,1.537 1000.36,1000.327 999.6,1000.38 902.316,5.125 	"/>
	<polygon points="853.439,11.1 1000.352,1000.252 999.6,1000.38 805.232,19.452 	"/>
	<polygon points="757.176,30.19 1000.335,1000.18 999.6,1000.38 710.02,43.227 	"/>
	<polygon points="663.248,58.624 1000.312,1000.109 999.6,1000.38 617.598,76.22 	"/>
	<polygon points="572.56,96.126 1000.282,1000.041 999.6,1000.38 528.854,118.113 	"/>
	<polygon points="485.984,142.338 1000.246,999.976 999.6,1000.38 444.643,168.503 	"/>
	<polygon points="404.354,196.813 1000.203,999.915 999.6,1000.38 365.777,226.904 	"/>
</g>
</svg>
