<?xml version="1.0" encoding="utf-8"?>
<!-- Generator: Adobe Illustrator 16.0.0, SVG Export Plug-In . SVG Version: 6.00 Build 0)  -->
<!DOCTYPE svg PUBLIC "-//W3C//DTD SVG 1.1//EN" "http://www.w3.org/Graphics/SVG/1.1/DTD/svg11.dtd">
<svg version="1.1" id="Layer_1" xmlns="http://www.w3.org/2000/svg" xmlns:xlink="http://www.w3.org/1999/xlink" x="0px" y="0px"
	 width="3000px" height="3000px" viewBox="1000 1000 3000 3000" enable-background="new 1000 1000 3000 3000" xml:space="preserve">
<g>
	<polygon points="1493.288,1387.965 2500.826,2499.214 2499.998,2499.999 1440.12,1438.557 	"/>
	<polygon points="1389.137,1491.994 2500.744,2499.136 2499.998,2499.999 1341.184,1547.555 	"/>
	<polygon points="1295.686,1605.732 2500.656,2499.067 2499.998,2499.999 1253.409,1665.727 	"/>
	<polygon points="1213.83,1728.082 2500.562,2499.007 2499.998,2499.999 1177.637,1791.93 	"/>
	<polygon points="1144.362,1857.865 2500.463,2498.957 2499.998,2499.999 1114.601,1924.954 	"/>
	<polygon points="1087.95,1993.833 2500.358,2498.918 2499.998,2499.999 1064.91,2063.516 	"/>
	<polygon points="1045.137,2134.676 2500.251,2498.887 2499.998,2499.999 1029.036,2206.281 	"/>
	<polygon points="1016.335,2279.036 2500.141,2498.867 2499.998,2499.999 1007.33,2351.875 	"/>
	<polygon points="1001.821,2425.525 2500.03,2498.859 2499.998,2499.999 1000,2498.895 	"/>
	<polygon points="1001.735,2572.729 2499.917,2498.862 2499.998,2499.999 1007.115,2645.927 	"/>
	<polygon points="1016.079,2719.235 2499.806,2498.875 2499.998,2499.999 1028.606,2791.552 	"/>
	<polygon points="1044.715,2863.63 2499.698,2498.898 2499.998,2499.999 1064.269,2934.37 	"/>
	<polygon points="1087.365,3004.521 2499.59,2498.936 2499.998,2499.999 1113.757,3073.006 	"/>
	<polygon points="1143.619,3140.556 2499.488,2498.98 2499.998,2499.999 1176.598,3206.122 	"/>
	<polygon points="1212.936,3270.42 2499.393,2499.037 2499.998,2499.999 1252.183,3332.437 	"/>
	<polygon points="1294.648,3392.866 2499.3,2499.101 2499.998,2499.999 1339.785,3450.737 	"/>
	<polygon points="1387.967,3506.712 2499.217,2499.174 2499.998,2499.999 1438.56,3559.88 	"/>
	<polygon points="1491.999,3610.863 2499.139,2499.253 2499.998,2499.999 1547.557,3658.815 	"/>
	<polygon points="1605.736,3704.317 2499.071,2499.343 2499.998,2499.999 1665.727,3746.593 	"/>
	<polygon points="1728.085,3786.173 2499.01,2499.437 2499.998,2499.999 1791.932,3822.362 	"/>
	<polygon points="1857.869,3855.638 2498.96,2499.536 2499.998,2499.999 1924.956,3885.397 	"/>
	<polygon points="1993.837,3912.051 2498.919,2499.64 2499.998,2499.999 2063.518,3935.091 	"/>
	<polygon points="2134.679,3954.864 2498.89,2499.748 2499.998,2499.999 2206.284,3970.962 	"/>
	<polygon points="2279.041,3983.667 2498.87,2499.859 2499.998,2499.999 2351.878,3992.67 	"/>
	<polygon points="2425.53,3998.179 2498.861,2499.97 2499.998,2499.999 2498.899,4000 	"/>
	<polygon points="2572.736,3998.265 2498.866,2500.081 2499.998,2499.999 2645.928,3992.886 	"/>
	<polygon points="2719.24,3983.922 2498.878,2500.192 2499.998,2499.999 2791.555,3971.394 	"/>
	<polygon points="2863.635,3955.286 2498.904,2500.302 2499.998,2499.999 2934.371,3935.729 	"/>
	<polygon points="3004.527,3912.636 2498.937,2500.407 2499.998,2499.999 3073.004,3886.241 	"/>
	<polygon points="3140.562,3856.382 2498.983,2500.509 2499.998,2499.999 3206.121,3823.399 	"/>
	<polygon points="3270.426,3787.064 2499.037,2500.606 2499.998,2499.999 3332.439,3747.818 	"/>
	<polygon points="3392.87,3705.351 2499.101,2500.697 2499.998,2499.999 3450.737,3660.214 	"/>
	<polygon points="3506.716,3612.03 2499.174,2500.782 2499.998,2499.999 3559.88,3561.438 	"/>
	<polygon points="3610.866,3508 2499.256,2500.858 2499.998,2499.999 3658.815,3452.441 	"/>
	<polygon points="3704.319,3394.263 2499.344,2500.927 2499.998,2499.999 3746.593,3334.272 	"/>
	<polygon points="3786.174,3271.912 2499.438,2500.988 2499.998,2499.999 3822.361,3208.065 	"/>
	<polygon points="3855.642,3142.126 2499.537,2501.037 2499.998,2499.999 3885.397,3075.042 	"/>
	<polygon points="3912.052,3006.159 2499.642,2501.078 2499.998,2499.999 3935.091,2936.481 	"/>
	<polygon points="3954.866,2865.317 2499.749,2501.108 2499.998,2499.999 3970.962,2793.716 	"/>
	<polygon points="3983.669,2720.957 2499.859,2501.128 2499.998,2499.999 3992.669,2648.124 	"/>
	<polygon points="3998.181,2574.467 2499.97,2501.137 2499.998,2499.999 4000,2501.102 	"/>
	<polygon points="3998.266,2427.261 2500.082,2501.134 2499.998,2499.999 3992.886,2354.071 	"/>
	<polygon points="3983.923,2280.756 2500.191,2501.12 2499.998,2499.999 3971.394,2208.445 	"/>
	<polygon points="3955.288,2136.362 2500.301,2501.096 2499.998,2499.999 3935.729,2065.629 	"/>
	<polygon points="3912.638,1995.47 2500.408,2501.062 2499.998,2499.999 3886.241,1926.993 	"/>
	<polygon points="3856.382,1859.438 2500.51,2501.019 2499.998,2499.999 3823.401,1793.877 	"/>
	<polygon points="3787.065,1729.573 2500.607,2500.961 2499.998,2499.999 3747.817,1667.562 	"/>
	<polygon points="3705.353,1607.128 2500.699,2500.896 2499.998,2499.999 3660.215,1549.263 	"/>
	<polygon points="3612.032,1493.283 2500.785,2500.825 2499.998,2499.999 3561.438,1440.12 	"/>
	<polygon points="3508.001,1389.132 2500.861,2500.744 2499.998,2499.999 3452.442,1341.185 	"/>
	<polygon points="3394.264,1295.679 2500.932,2500.657 2499.998,2499.999 3334.271,1253.409 	"/>
	<polygon points="3271.913,1213.826 2500.99,2500.562 2499.998,2499.999 3208.064,1177.638 	"/>
	<polygon points="3142.129,1144.359 2501.041,2500.463 2499.998,2499.999 3075.043,1114.604 	"/>
	<polygon points="3006.16,1087.947 2501.082,2500.359 2499.998,2499.999 2936.482,1064.91 	"/>
	<polygon points="2865.318,1045.134 2501.112,2500.252 2499.998,2499.999 2793.717,1029.039 	"/>
	<polygon points="2720.957,1016.333 2501.131,2500.143 2499.998,2499.999 2648.123,1007.333 	"/>
	<polygon points="2574.467,1001.818 2501.141,2500.031 2499.998,2499.999 2501.102,1000 	"/>
	<polygon points="2427.263,1001.734 2501.139,2499.92 2499.998,2499.999 2354.073,1007.116 	"/>
	<polygon points="2280.757,1016.079 2501.125,2499.807 2499.998,2499.999 2208.447,1028.607 	"/>
	<polygon points="2136.362,1044.714 2501.102,2499.699 2499.998,2499.999 2065.627,1064.27 	"/>
	<polygon points="1995.47,1087.365 2501.066,2499.593 2499.998,2499.999 1926.995,1113.759 	"/>
	<polygon points="1859.438,1143.618 2501.021,2499.49 2499.998,2499.999 1793.878,1176.598 	"/>
	<polygon points="1729.575,1212.936 2500.967,2499.393 2499.998,2499.999 1667.562,1252.184 	"/>
	<polygon points="1607.128,1294.648 2500.902,2499.302 2499.998,2499.999 1549.263,1339.785 	"/>
</g>
</svg>
