<?xml version="1.0" encoding="utf-8"?>
<!-- Generator: Adobe Illustrator 16.0.0, SVG Export Plug-In . SVG Version: 6.00 Build 0)  -->
<!DOCTYPE svg PUBLIC "-//W3C//DTD SVG 1.1//EN" "http://www.w3.org/Graphics/SVG/1.1/DTD/svg11.dtd">
<svg version="1.1" id="Layer_1" xmlns="http://www.w3.org/2000/svg" xmlns:xlink="http://www.w3.org/1999/xlink" x="0px" y="0px"
	 width="2000px" height="2000px" viewBox="0 -400 2000 2000" enable-background="new 0 -400 2000 2000" xml:space="preserve">
<g>
	<polygon fill="#231F20" points="-138.195,1222.091 -35.479,1065.726 -199.684,792.716 68.422,362.979 -138.195,2.091 
		-35.479,-154.274 -213.346,-450 -250.195,-427.837 -86.265,-155.283 -188.628,0.546 18.332,362.032 -249.918,791.997 
		-250.195,792.163 -86.265,1064.717 -188.628,1220.546 18.332,1582.032 -250.012,2012.147 -213.529,2034.907 68.422,1582.979 	"/>
	<polygon fill="#231F20" points="-36.718,1222.091 65.999,1065.726 -98.207,792.716 169.9,362.979 -36.718,2.091 65.999,-154.274 
		-111.869,-450 -148.717,-427.837 15.213,-155.283 -87.151,0.546 119.809,362.032 -148.44,791.997 -148.717,792.163 
		15.213,1064.717 -87.151,1220.546 119.809,1582.032 -148.534,2012.147 -112.052,2034.907 169.9,1582.979 	"/>
	<polygon fill="#231F20" points="70.457,1222.091 173.173,1065.726 8.968,792.715 277.075,362.979 70.457,2.091 173.173,-154.274 
		-4.694,-450 -41.542,-427.837 122.388,-155.283 20.024,0.546 226.984,362.032 -41.265,791.996 -41.542,792.163 122.388,1064.717 
		20.024,1220.546 226.984,1582.032 -41.359,2012.147 -4.877,2034.907 277.075,1582.979 	"/>
	<polygon fill="#231F20" points="170.795,1222.091 273.511,1065.726 109.306,792.715 377.413,362.979 170.795,2.091 
		273.511,-154.274 95.644,-450 58.795,-427.837 222.726,-155.283 120.362,0.546 327.322,362.032 59.074,791.995 58.795,792.163 
		222.726,1064.717 120.362,1220.546 327.322,1582.032 58.979,2012.147 95.461,2034.907 377.413,1582.979 	"/>
	<polygon fill="#231F20" points="273.413,1222.091 376.128,1065.726 211.923,792.715 480.03,362.979 273.413,2.091 
		376.128,-154.274 198.261,-450 161.413,-427.837 325.343,-155.283 222.979,0.546 429.939,362.032 161.69,791.996 161.413,792.163 
		325.343,1064.717 222.979,1220.546 429.939,1582.032 161.596,2012.147 198.078,2034.907 480.03,1582.979 	"/>
	<polygon fill="#231F20" points="378.308,1222.091 481.024,1065.726 316.819,792.715 584.926,362.979 378.308,2.091 
		481.024,-154.274 303.157,-450 266.309,-427.837 430.239,-155.283 327.875,0.546 534.835,362.032 266.586,791.996 266.309,792.163 
		430.239,1064.717 327.875,1220.546 534.835,1582.032 266.492,2012.147 302.974,2034.907 584.926,1582.979 	"/>
	<polygon fill="#231F20" points="480.925,1222.091 583.642,1065.726 419.437,792.715 687.543,362.979 480.925,2.091 
		583.642,-154.274 405.774,-450 368.926,-427.837 532.856,-155.283 430.492,0.546 637.453,362.032 369.203,791.996 368.926,792.163 
		532.856,1064.717 430.492,1220.546 637.453,1582.032 369.109,2012.147 405.591,2034.907 687.543,1582.979 	"/>
	<polygon fill="#231F20" points="585.821,1222.091 688.538,1065.726 524.333,792.716 792.439,362.979 585.821,2.091 
		688.538,-154.274 510.67,-450 473.822,-427.837 637.752,-155.283 535.388,0.546 742.348,362.032 474.099,791.997 473.822,792.163 
		637.752,1064.717 535.388,1220.546 742.348,1582.032 474.005,2012.147 510.487,2034.907 792.439,1582.979 	"/>
	<polygon fill="#231F20" points="689.578,1222.091 792.294,1065.726 628.089,792.716 896.196,362.979 689.578,2.091 
		792.294,-154.274 614.427,-450 577.578,-427.837 741.509,-155.283 639.145,0.546 846.105,362.032 577.855,791.997 577.578,792.163 
		741.509,1064.717 639.145,1220.546 846.105,1582.032 577.761,2012.147 614.244,2034.907 896.196,1582.979 	"/>
	<polygon fill="#231F20" points="789.916,1222.091 892.632,1065.726 728.427,792.716 996.534,362.979 789.916,2.091 
		892.632,-154.274 714.765,-450 677.917,-427.837 841.847,-155.283 739.483,0.546 946.443,362.032 678.194,791.997 677.917,792.163 
		841.847,1064.717 739.483,1220.546 946.443,1582.032 678.1,2012.147 714.582,2034.907 996.534,1582.979 	"/>
	<polygon fill="#231F20" points="890.254,1222.091 992.971,1065.726 828.766,792.715 1096.873,362.979 890.254,2.091 
		992.971,-154.274 815.104,-450 778.255,-427.837 942.186,-155.283 839.821,0.546 1046.781,362.032 778.532,791.997 
		778.255,792.163 942.186,1064.717 839.821,1220.546 1046.781,1582.032 778.438,2012.147 814.92,2034.907 1096.873,1582.979 	"/>
	<polygon fill="#231F20" points="996.29,1222.091 1099.006,1065.726 934.801,792.716 1202.908,362.979 996.29,2.091 
		1099.006,-154.274 921.139,-450 884.29,-427.837 1048.221,-155.283 945.856,0.546 1152.816,362.032 884.567,791.997 
		884.29,792.163 1048.221,1064.717 945.856,1220.546 1152.816,1582.032 884.473,2012.147 920.956,2034.907 1202.908,1582.979 	"/>
	<polygon fill="#231F20" points="1103.465,1222.091 1206.181,1065.726 1041.975,792.716 1310.082,362.979 1103.465,2.091 
		1206.181,-154.274 1028.312,-450 991.464,-427.837 1155.396,-155.283 1053.031,0.546 1259.99,362.032 991.741,791.997 
		991.464,792.163 1155.396,1064.717 1053.031,1220.546 1259.99,1582.032 991.646,2012.147 1028.13,2034.907 1310.082,1582.979 	"/>
	<polygon fill="#231F20" points="1202.663,1222.091 1305.38,1065.726 1141.174,792.715 1409.28,362.979 1202.663,2.091 
		1305.38,-154.274 1127.512,-450 1090.664,-427.837 1254.595,-155.283 1152.229,0.546 1359.188,362.032 1090.94,791.997 
		1090.664,792.163 1254.595,1064.717 1152.229,1220.546 1359.188,1582.032 1090.847,2012.147 1127.329,2034.906 1409.28,1582.979 	
		"/>
	<polygon fill="#231F20" points="1309.837,1222.091 1412.554,1065.726 1248.35,792.715 1516.454,362.979 1309.837,2.091 
		1412.554,-154.274 1234.688,-450 1197.84,-427.837 1361.77,-155.283 1259.403,0.546 1466.362,362.032 1198.115,791.998 
		1197.84,792.163 1361.77,1064.717 1259.403,1220.546 1466.362,1582.032 1198.021,2012.147 1234.505,2034.906 1516.454,1582.979 	
		"/>
	<polygon fill="#231F20" points="1413.593,1222.091 1516.311,1065.726 1352.105,792.714 1620.21,362.979 1413.593,2.091 
		1516.311,-154.274 1338.444,-450 1301.596,-427.837 1465.524,-155.283 1363.159,0.546 1570.118,362.032 1301.872,791.997 
		1301.596,792.163 1465.524,1064.717 1363.159,1220.546 1570.118,1582.032 1301.778,2012.147 1338.261,2034.906 1620.21,1582.979 	
		"/>
	<polygon fill="#231F20" points="1513.931,1222.091 1616.646,1065.726 1452.443,792.715 1720.548,362.979 1513.931,2.091 
		1616.646,-154.274 1438.782,-450 1401.934,-427.837 1565.862,-155.283 1463.497,0.546 1670.456,362.032 1402.21,791.997 
		1401.934,792.163 1565.862,1064.717 1463.497,1220.546 1670.456,1582.032 1402.116,2012.147 1438.599,2034.906 1720.548,1582.979 	
		"/>
	<polygon fill="#231F20" points="1617.688,1222.091 1720.403,1065.726 1556.199,792.714 1824.304,362.979 1617.688,2.091 
		1720.403,-154.274 1542.538,-450 1505.689,-427.837 1669.618,-155.283 1567.253,0.546 1774.212,362.032 1505.966,791.997 
		1505.689,792.163 1669.618,1064.717 1567.253,1220.546 1774.212,1582.032 1505.872,2012.147 1542.354,2034.906 1824.304,1582.979 	
		"/>
	<polygon fill="#231F20" points="1721.442,1222.091 1824.159,1065.726 1659.955,792.714 1928.061,362.979 1721.442,2.091 
		1824.159,-154.274 1646.294,-450 1609.445,-427.837 1773.374,-155.283 1671.009,0.546 1877.968,362.032 1609.722,791.997 
		1609.445,792.163 1773.374,1064.717 1671.009,1220.546 1877.968,1582.032 1609.628,2012.147 1646.11,2034.906 1928.061,1582.979 	
		"/>
	<polygon fill="#231F20" points="1829.756,1222.091 1932.473,1065.726 1768.268,792.716 2036.374,362.979 1829.756,2.091 
		1932.473,-154.274 1754.605,-450 1717.759,-427.837 1881.688,-155.283 1779.322,0.546 1986.282,362.032 1718.035,791.997 
		1717.759,792.163 1881.688,1064.717 1779.322,1220.546 1986.282,1582.032 1717.941,2012.147 1754.424,2034.906 2036.374,1582.979 	
		"/>
	<polygon fill="#231F20" points="1931.233,1222.091 2033.949,1065.726 1869.745,792.715 2137.852,362.979 1931.233,2.091 
		2033.949,-154.274 1856.083,-450 1819.235,-427.837 1983.164,-155.283 1880.8,0.546 2087.759,362.032 1819.512,791.997 
		1819.235,792.163 1983.164,1064.717 1880.8,1220.546 2087.759,1582.032 1819.418,2012.147 1855.9,2034.906 2137.852,1582.979 	"/>
	<polygon fill="#231F20" points="2137.706,1065.726 1973.501,792.715 2241.605,362.979 2034.989,2.091 2137.706,-154.274 
		1959.839,-450 1922.991,-427.837 2086.921,-155.283 1984.556,0.546 2191.515,362.032 1923.268,791.997 1922.991,792.163 
		2086.921,1064.717 1984.556,1220.546 2191.515,1582.032 1923.174,2012.147 1959.656,2034.906 2241.605,1582.979 2034.989,1222.091 
			"/>
</g>
</svg>
