<?xml version="1.0" encoding="utf-8"?>
<!-- Generator: Adobe Illustrator 16.0.0, SVG Export Plug-In . SVG Version: 6.00 Build 0)  -->
<!DOCTYPE svg PUBLIC "-//W3C//DTD SVG 1.1//EN" "http://www.w3.org/Graphics/SVG/1.1/DTD/svg11.dtd">
<svg version="1.1" id="Layer_1" xmlns="http://www.w3.org/2000/svg" xmlns:xlink="http://www.w3.org/1999/xlink" x="0px" y="0px"
	 width="2000px" height="2000px" viewBox="0 -400 2000 2000" enable-background="new 0 -400 2000 2000" xml:space="preserve">
<g>
	<path fill="#231F20" d="M0-409V1.26c16.933,0,33.619-1.054,50-3.09V-409H0z"/>
	<path fill="#231F20" d="M0,1204.38V1600c16.716,0,33.382-0.209,50-0.617v-395.771C33.395,1204.119,16.728,1204.38,0,1204.38z"/>
	<path fill="#231F20" d="M0,400.299V802.34c16.75,0,33.416-0.359,50-1.038V398.755C33.463,399.774,16.793,400.299,0,400.299z"/>
	<path fill="#231F20" d="M100-409v397.697c17.137-4.396,33.828-9.899,50-16.421V-409H100z"/>
	<path fill="#231F20" d="M100,394.103v404.114c16.766-1.381,33.436-3.098,50-5.158V386.257
		C133.507,389.384,116.834,392.004,100,394.103z"/>
	<path fill="#231F20" d="M100,1201.308v396.229c16.722-0.823,33.389-1.854,50-3.085v-396.998
		C133.405,1198.991,116.737,1200.278,100,1201.308z"/>
	<path fill="#231F20" d="M200,375.105V785.77c16.789-2.811,33.455-5.98,50-9.48V360.464C233.561,365.866,216.891,370.76,200,375.105
		z"/>
	<path fill="#231F20" d="M200,1192.027v398.088c16.728-1.66,33.396-3.527,50-5.598V1185.01
		C233.416,1187.604,216.748,1189.945,200,1192.027z"/>
	<path fill="#231F20" d="M200-409v356.94c17.547-10.108,34.255-21.51,50-34.067V-409H200z"/>
	<path fill="#231F20" d="M300,1176.372v401.269c16.735-2.518,33.403-5.241,50-8.171v-403.385
		C333.429,1169.772,316.76,1173.201,300,1176.372z"/>
	<path fill="#231F20" d="M300,342.158v422.45c16.814-4.319,33.479-9.011,50-14.029V319.895
		C333.637,327.865,316.964,335.294,300,342.158z"/>
	<path fill="#231F20" d="M300-409v275.479c19.055-21.437,35.845-44.931,50-70.105V-409H300z"/>
	<path fill="#231F20" d="M400,1154.113v405.872c16.743-3.398,33.412-7.004,50-10.818V1140.41
		C433.442,1145.239,416.774,1149.809,400,1154.113z"/>
	<path fill="#231F20" d="M400-368.039c0.831-10.544,1.26-21.203,1.26-31.961c0-3.008-0.04-6.007-0.105-9H400V-368.039z"/>
	<path fill="#231F20" d="M400,293.31v440.888c16.845-5.941,33.509-12.262,50-18.922V261.879
		C433.751,272.948,417.076,283.436,400,293.31z"/>
	<path fill="#231F20" d="M500,224.908v468.835c16.879-7.729,33.551-15.831,50-24.308v-488.09
		C533.947,196.538,517.268,211.074,500,224.908z"/>
	<path fill="#231F20" d="M500,1124.928v412.062c16.753-4.312,33.419-8.841,50-13.573v-415.796
		C533.459,1113.657,516.79,1119.426,500,1124.928z"/>
	<path fill="#231F20" d="M600,129.604v512.549c16.932-9.77,33.602-19.941,50-30.499V66.96C634.368,88.682,617.68,109.59,600,129.604
		z"/>
	<path fill="#231F20" d="M600,1088.415v420.015c16.763-5.265,33.431-10.742,50-16.434v-424.75
		C633.479,1074.576,616.81,1081.633,600,1088.415z"/>
	<path fill="#231F20" d="M700,1044.017v430.059c16.775-6.269,33.441-12.762,50-19.465v-435.968
		C733.502,1027.383,716.833,1035.842,700,1044.017z"/>
	<path fill="#231F20" d="M700-11.802v589.45c17.003-12.196,33.675-24.824,50-37.869v-659.953
		C735.988-82.635,719.244-46.43,700-11.802z"/>
	<path fill="#231F20" d="M800,991.002v442.578c16.789-7.336,33.455-14.901,50-22.681v-449.94
		C833.531,971.267,816.862,981.283,800,991.002z"/>
	<path fill="#231F20" d="M800.242-409c0.033,2.997,0.057,5.996,0.057,9c0,7.308-0.104,14.592-0.299,21.853v875.708
		c17.11-15.261,33.79-30.994,50-47.198V-409H800.242z"/>
	<path fill="#231F20" d="M900-409v806.274c17.308-19.523,33.975-39.625,50-60.25V-409H900z"/>
	<path fill="#231F20" d="M900,928.354v458.188c16.805-8.483,33.471-17.202,50-26.141V893.003
		C933.569,905.096,916.9,916.881,900,928.354z"/>
	<path fill="#231F20" d="M1000-409v676.74c17.703-26.459,34.398-53.649,50-81.536V-409H1000z"/>
	<path fill="#231F20" d="M1000,854.676v477.749c16.822-9.731,33.491-19.699,50-29.901V813.102
		C1033.621,827.291,1016.949,841.149,1000,854.676z"/>
	<path fill="#231F20" d="M1100,767.925v502.664c16.847-11.115,33.515-22.479,50-34.084V718.713
		C1133.691,735.476,1117.023,751.886,1100,767.925z"/>
	<path fill="#231F20" d="M1100-409V86.104c19.227-43.443,35.952-88.237,50-134.202V-409H1100z"/>
	<path fill="#231F20" d="M1200,664.935v535.201c16.876-12.676,33.544-25.612,50-38.804V605.839
		C1233.803,625.942,1217.13,645.646,1200,664.935z"/>
	<path fill="#231F20" d="M1200-324.532c1.546-24.958,2.34-50.12,2.34-75.468c0-3.004-0.035-6.001-0.057-9H1200V-324.532z"/>
	<path fill="#231F20" d="M1300,540.417v579.499c16.915-14.481,33.581-29.246,50-44.275v-608.38
		C1333.993,492.126,1317.317,516.519,1300,540.417z"/>
	<path fill="#231F20" d="M1350,1616.003v-28.443c-14.145,9.626-28.392,19.113-42.751,28.443H1350z"/>
	<path fill="#231F20" d="M1400,1616.003h50v-100.296c-16.501,12.509-33.17,24.807-50,36.895V1616.003z"/>
	<path fill="#231F20" d="M1400,384.178v644.098c16.965-16.631,33.634-33.561,50-50.782V287.556
		C1434.401,320.393,1417.718,352.614,1400,384.178z"/>
	<path fill="#231F20" d="M1500,170.458v752.441c17.036-19.302,33.709-38.931,50-58.885V15.678
		C1535.899,68.389,1519.188,120.033,1500,170.458z"/>
	<path fill="#231F20" d="M1500,1616.003h50v-180.368c-16.477,13.927-33.148,27.628-50,41.114V1616.003z"/>
	<path fill="#231F20" d="M1604.352-409c0.017,2.998,0.028,5.998,0.028,9c0,40.146-1.482,79.944-4.38,119.35V800.181
		c17.148-22.824,33.82-46.026,50-69.594V-409H1604.352z"/>
	<path fill="#231F20" d="M1600,1616.003h50v-269.778c-16.448,15.548-33.117,30.863-50,45.946V1616.003z"/>
	<path fill="#231F20" d="M1700-409V654.069c17.343-27.911,34.016-56.281,50-85.086V-409H1700z"/>
	<path fill="#231F20" d="M1700,1616.003h50v-369.999c-16.411,17.44-33.08,34.636-50,51.58V1616.003z"/>
	<path fill="#231F20" d="M1800-409v881.804c17.762-36.562,34.442-73.748,50-111.513V-409H1800z"/>
	<path fill="#231F20" d="M1800,1616.003h50V1132.83c-16.36,19.724-33.028,39.183-50,58.367V1616.003z"/>
	<path fill="#231F20" d="M1900-409v635.206c19.367-58.798,36.08-118.8,50-179.867V-409H1900z"/>
	<path fill="#231F20" d="M1900,1070.489v545.514h50v-612.382C1933.713,1026.208,1917.043,1048.5,1900,1070.489z"/>
	<path fill="#231F20" d="M250-86.127v446.592c16.923-5.56,33.596-11.668,50-18.306v-475.679
		C284.724-116.336,267.991-100.476,250-86.127z"/>
	<path fill="#231F20" d="M350-203.626v523.521c17.012-8.287,33.689-17.155,50-26.585v-661.349
		C395.32-308.662,377.717-252.92,350-203.626z"/>
	<path fill="#231F20" d="M150-27.724v413.981c16.859-3.197,33.533-6.915,50-11.151V-52.06C183.997-42.842,167.296-34.7,150-27.724z"
		/>
	<path fill="#231F20" d="M50-1.831v400.585c16.812-1.036,33.484-2.594,50-4.652V-11.303C83.71-7.124,67.02-3.946,50-1.831z"/>
	<path fill="#231F20" d="M-401.26-400c0-221.609,179.65-401.26,401.26-401.26c218.602,0,396.368,174.808,401.154,392.26H450v670.879
		c17.156-11.687,33.835-24.02,50-36.971V-409h50v590.346c17.425-16.492,34.112-33.755,50-51.742V-409h50V66.96
		c18.134-25.198,34.843-51.489,50-78.763V-409h50v288.826c30.099-80.637,47.572-167.427,50-257.973V-409h0.242
		C795.417-846.846,438.989-1200.299,0-1200.299c-441.993,0-800.299,358.306-800.299,800.299S-441.993,400.299,0,400.299V1.26
		C-221.61,1.26-401.26-178.391-401.26-400z"/>
	<path fill="#231F20" d="M650,611.654v455.592c16.821-7.464,33.489-15.21,50-23.229V577.648
		C683.634,589.387,666.966,600.731,650,611.654z"/>
	<path fill="#231F20" d="M950,337.024v555.979c16.923-12.454,33.593-25.232,50-38.327V267.74
		C984.14,291.444,967.46,314.551,950,337.024z"/>
	<path fill="#231F20" d="M750,539.779v478.864c16.847-8.925,33.516-18.14,50-27.641V497.561
		C783.725,512.077,767.051,526.153,750,539.779z"/>
	<path fill="#231F20" d="M550,669.436v438.186c16.8-6.13,33.468-12.535,50-19.206V642.153
		C583.575,651.63,566.903,660.726,550,669.436z"/>
	<path fill="#231F20" d="M1050,186.204v626.897c16.982-14.712,33.653-29.774,50-45.177V86.104
		C1084.85,120.337,1068.164,153.739,1050,186.204z"/>
	<path fill="#231F20" d="M850,450.363v510.596c16.88-10.565,33.549-21.438,50-32.605V397.274
		C883.868,415.472,867.193,433.177,850,450.363z"/>
	<path fill="#231F20" d="M-1202.34-400c0-664.034,538.306-1202.34,1202.34-1202.34c661.03,0,1197.442,533.451,1202.283,1193.34H1250
		V605.839c17.212-21.362,33.882-43.179,50-65.422V-409h50v876.261c17.474-27.144,34.151-54.849,50-83.083V-409h50v696.556
		c18.157-38.225,34.85-77.282,50-117.098V-409h50V15.678c25.562-95.554,42.521-194.623,50-296.328V-409h4.352
		C1599.507-1290.933,883.072-2004.38,0-2004.38c-886.075,0-1604.38,718.305-1604.38,1604.38S-886.075,1204.38,0,1204.38V802.34
		C-664.034,802.34-1202.34,264.034-1202.34-400z"/>
	<path fill="#231F20" d="M50,801.302v402.31c16.732-0.513,33.4-1.283,50-2.304V798.217C83.426,799.581,66.758,800.616,50,801.302z"
		/>
	<path fill="#231F20" d="M450,715.275v425.135c16.783-4.895,33.45-10.06,50-15.482V693.743
		C483.529,701.285,466.86,708.466,450,715.275z"/>
	<path fill="#231F20" d="M150,793.059v404.395c16.743-1.553,33.411-3.362,50-5.426V785.77
		C183.446,788.542,166.776,790.971,150,793.059z"/>
	<path fill="#231F20" d="M1150-48.098v766.811c17.068-17.543,33.742-35.472,50-53.778v-989.467
		C1194.079-228.931,1176.976-136.36,1150-48.098z"/>
	<path fill="#231F20" d="M250,776.289v408.721c16.754-2.622,33.422-5.502,50-8.638V764.608
		C283.47,768.854,266.796,772.737,250,776.289z"/>
	<path fill="#231F20" d="M350,750.579v415.506c16.767-3.73,33.436-7.721,50-11.972V734.197
		C383.498,740.017,366.823,745.468,350,750.579z"/>
	<path fill="#231F20" d="M1300,1119.916c-16.437,14.071-33.108,27.875-50,41.416v454.671h-50v-415.867
		c-16.472,12.373-33.14,24.499-50,36.369v379.498h-50v-345.414c-16.497,10.885-33.166,21.53-50,31.935v313.479h-50v-283.578
		c-16.519,9.556-33.187,18.884-50,27.976v255.603h-50v-229.462c-16.535,8.346-33.206,16.462-50,24.358v205.104h-50V1433.58
		c-16.55,7.23-33.22,14.238-50,21.03v161.393h-50v-141.928c-16.563,6.189-33.232,12.161-50,17.921v124.007h-50V1508.43
		c-16.575,5.206-33.242,10.205-50,14.987v92.586h-50v-79.013c-16.584,4.269-33.252,8.326-50,12.177v66.836h-50v-56.018
		c-16.593,3.368-33.261,6.529-50,9.484v46.533h-50v-38.362c-16.601,2.497-33.268,4.79-50,6.877v31.485h-50v-25.888
		c-16.608,1.649-33.275,3.096-50,4.336v21.552h-50v-18.467c-16.614,0.818-33.281,1.437-50,1.847v16.62H0V1600
		c-1104.569,0-2000-895.431-2000-2000S-1104.569-2400,0-2400s2000,895.431,2000,2000c0,153.429-17.286,302.82-50,446.339v957.282
		C2234.715,608.772,2402.46,123.977,2402.46-400c0-1326.842-1075.618-2402.46-2402.46-2402.46S-2402.46-1726.842-2402.46-400
		S-1326.842,2002.46,0,2002.46c482.097,0,931.028-142.001,1307.249-386.457H1300V1119.916z"/>
	<path fill="#231F20" d="M1850,361.291v771.54c17.002-20.497,33.675-41.277,50-62.341V226.206
		C1884.92,271.987,1868.23,317.037,1850,361.291z"/>
	<path fill="#231F20" d="M1750,568.983v677.021c16.945-18.009,33.611-36.281,50-54.807V472.804
		C1784.181,505.367,1767.505,537.437,1750,568.983z"/>
	<path fill="#231F20" d="M1450,977.493v538.214c16.843-12.769,33.508-25.76,50-38.958V922.898
		C1483.667,941.404,1466.998,959.606,1450,977.493z"/>
	<path fill="#231F20" d="M1650,730.587v615.638c16.899-15.974,33.57-32.188,50-48.641V654.069
		C1683.902,679.976,1667.23,705.488,1650,730.587z"/>
	<path fill="#231F20" d="M1550,864.014v571.621c16.869-14.259,33.533-28.753,50-43.464v-591.99
		C1583.756,821.802,1567.088,843.086,1550,864.014z"/>
	<path fill="#231F20" d="M1350,1075.641v511.919c16.82-11.446,33.489-23.099,50-34.958v-524.326
		C1383.606,1044.347,1366.937,1060.137,1350,1075.641z"/>
</g>
</svg>
