<?xml version="1.0" encoding="utf-8"?>
<!-- Generator: Adobe Illustrator 16.0.0, SVG Export Plug-In . SVG Version: 6.00 Build 0)  -->
<!DOCTYPE svg PUBLIC "-//W3C//DTD SVG 1.1//EN" "http://www.w3.org/Graphics/SVG/1.1/DTD/svg11.dtd">
<svg version="1.1" id="Layer_1" xmlns="http://www.w3.org/2000/svg" xmlns:xlink="http://www.w3.org/1999/xlink" x="0px" y="0px"
	 width="1000px" height="971.4px" viewBox="549.188 472.225 1000 971.4" enable-background="new 549.188 472.225 1000 971.4"
	 xml:space="preserve">
<g>
	<defs>
		<rect id="SVGID_1_" x="549.188" y="472.224" width="1000" height="971.401"/>
	</defs>
	<clipPath id="SVGID_2_">
		<use xlink:href="#SVGID_1_"  overflow="visible"/>
	</clipPath>
	<g clip-path="url(#SVGID_2_)">
		<polygon fill="#231F20" points="471.235,1092.158 523.43,1012.703 439.99,873.975 576.227,655.607 471.235,472.225 
			523.43,392.769 433.048,242.498 414.323,253.76 497.623,392.256 445.608,471.439 550.773,655.126 414.464,873.61 414.323,873.694 
			497.623,1012.19 445.608,1091.374 550.773,1275.061 414.416,1493.619 432.955,1505.186 576.227,1275.541 		"/>
		<polygon fill="#231F20" points="522.801,1092.158 574.995,1012.703 491.555,873.975 627.792,655.607 522.801,472.225 
			574.995,392.769 484.612,242.498 465.889,253.76 549.188,392.256 497.173,471.439 602.338,655.126 466.029,873.61 
			465.889,873.694 549.188,1012.19 497.173,1091.374 602.338,1275.061 465.981,1493.619 484.52,1505.186 627.792,1275.541 		"/>
		<polygon fill="#231F20" points="577.261,1092.158 629.455,1012.703 546.015,873.975 682.252,655.607 577.261,472.225 
			629.455,392.769 539.073,242.498 520.349,253.76 603.648,392.256 551.633,471.439 656.799,655.126 520.489,873.609 
			520.349,873.694 603.648,1012.19 551.633,1091.374 656.799,1275.061 520.442,1493.619 538.98,1505.186 682.252,1275.541 		"/>
		<polygon fill="#231F20" points="628.246,1092.158 680.44,1012.703 597.001,873.975 733.238,655.607 628.246,472.225 
			680.44,392.769 590.059,242.498 571.334,253.76 654.635,392.256 602.619,471.439 707.784,655.126 571.477,873.609 
			571.334,873.694 654.635,1012.19 602.619,1091.374 707.784,1275.061 571.428,1493.619 589.966,1505.186 733.238,1275.541 		"/>
		<polygon fill="#231F20" points="680.391,1092.158 732.585,1012.703 649.146,873.975 785.382,655.607 680.391,472.225 
			732.585,392.769 642.203,242.498 623.479,253.76 706.778,392.256 654.764,471.439 759.929,655.126 623.62,873.609 
			623.479,873.694 706.778,1012.19 654.764,1091.374 759.929,1275.061 623.572,1493.619 642.11,1505.186 785.382,1275.541 		"/>
		<polygon fill="#231F20" points="733.692,1092.158 785.888,1012.703 702.447,873.975 838.684,655.607 733.692,472.225 
			785.888,392.769 695.505,242.498 676.781,253.76 760.081,392.256 708.065,471.439 813.23,655.126 676.922,873.609 
			676.781,873.694 760.081,1012.19 708.065,1091.374 813.23,1275.061 676.874,1493.619 695.412,1505.186 838.684,1275.541 		"/>
		<polygon fill="#231F20" points="785.837,1092.158 838.031,1012.703 754.593,873.975 890.828,655.607 785.837,472.225 
			838.031,392.769 747.649,242.498 728.925,253.76 812.226,392.256 760.21,471.439 865.375,655.126 729.066,873.609 
			728.925,873.694 812.226,1012.19 760.21,1091.374 865.375,1275.061 729.019,1493.619 747.557,1505.186 890.828,1275.541 		"/>
		<polygon fill="#231F20" points="839.139,1092.158 891.334,1012.703 807.895,873.975 944.131,655.607 839.139,472.225 
			891.334,392.769 800.951,242.498 782.228,253.76 865.527,392.256 813.512,471.439 918.677,655.126 782.368,873.61 
			782.228,873.694 865.527,1012.19 813.512,1091.374 918.677,1275.061 782.32,1493.619 800.858,1505.186 944.131,1275.541 		"/>
		<polygon fill="#231F20" points="891.862,1092.158 944.057,1012.703 860.617,873.975 996.854,655.607 891.862,472.225 
			944.057,392.769 853.675,242.498 834.95,253.76 918.251,392.256 866.235,471.439 971.4,655.126 835.091,873.61 834.95,873.694 
			918.251,1012.19 866.235,1091.374 971.4,1275.061 835.043,1493.619 853.582,1505.186 996.854,1275.541 		"/>
		<polygon fill="#231F20" points="942.849,1092.158 995.043,1012.703 911.603,873.975 1047.84,655.607 942.849,472.225 
			995.043,392.769 904.661,242.498 885.937,253.76 969.236,392.256 917.222,471.439 1022.387,655.126 886.078,873.61 
			885.937,873.694 969.236,1012.19 917.222,1091.374 1022.387,1275.061 886.029,1493.619 904.568,1505.186 1047.84,1275.541 		"/>
		<polygon fill="#231F20" points="993.834,1092.158 1046.029,1012.703 962.59,873.975 1098.826,655.607 993.834,472.225 
			1046.029,392.769 955.647,242.498 936.923,253.76 1020.223,392.256 968.207,471.439 1073.372,655.126 937.063,873.61 
			936.923,873.694 1020.223,1012.19 968.207,1091.374 1073.372,1275.061 937.016,1493.619 955.554,1505.186 1098.826,1275.541 		"/>
		<polygon fill="#231F20" points="1047.716,1092.158 1099.91,1012.703 1016.471,873.975 1152.707,655.607 1047.716,472.225 
			1099.91,392.769 1009.528,242.498 990.804,253.76 1074.104,392.256 1022.088,471.439 1127.254,655.126 990.944,873.61 
			990.804,873.694 1074.104,1012.19 1022.088,1091.374 1127.254,1275.061 990.896,1493.619 1009.436,1505.186 1152.707,1275.541 		
			"/>
		<polygon fill="#231F20" points="1102.176,1092.158 1154.37,1012.703 1070.93,873.975 1207.167,655.607 1102.176,472.225 
			1154.37,392.769 1063.987,242.498 1045.264,253.76 1128.564,392.256 1076.549,471.439 1181.713,655.126 1045.404,873.61 
			1045.264,873.694 1128.564,1012.19 1076.549,1091.374 1181.713,1275.061 1045.356,1493.619 1063.895,1505.186 1207.167,1275.541 
					"/>
		<polygon fill="#231F20" points="1152.583,1092.158 1204.777,1012.703 1121.338,873.975 1257.574,655.607 1152.583,472.225 
			1204.777,392.769 1114.396,242.498 1095.671,253.76 1178.972,392.256 1126.955,471.439 1232.119,655.126 1095.812,873.61 
			1095.671,873.694 1178.972,1012.19 1126.955,1091.374 1232.119,1275.061 1095.764,1493.619 1114.303,1505.186 1257.574,1275.541 
					"/>
		<polygon fill="#231F20" points="1207.042,1092.158 1259.237,1012.703 1175.798,873.975 1312.033,655.607 1207.042,472.225 
			1259.237,392.769 1168.855,242.498 1150.132,253.76 1233.432,392.256 1181.415,471.439 1286.58,655.126 1150.271,873.61 
			1150.132,873.694 1233.432,1012.19 1181.415,1091.374 1286.58,1275.061 1150.225,1493.619 1168.763,1505.186 1312.033,1275.541 		
			"/>
		<polygon fill="#231F20" points="1259.766,1092.158 1311.961,1012.703 1228.521,873.974 1364.756,655.607 1259.766,472.225 
			1311.961,392.769 1221.579,242.498 1202.854,253.76 1286.154,392.256 1234.138,471.439 1339.303,655.126 1202.995,873.61 
			1202.854,873.694 1286.154,1012.19 1234.138,1091.374 1339.303,1275.061 1202.947,1493.619 1221.485,1505.186 1364.756,1275.541 
					"/>
		<polygon fill="#231F20" points="1310.751,1092.158 1362.945,1012.703 1279.507,873.975 1415.742,655.607 1310.751,472.225 
			1362.945,392.769 1272.565,242.498 1253.841,253.76 1337.14,392.256 1285.124,471.439 1390.288,655.126 1253.981,873.61 
			1253.841,873.694 1337.14,1012.19 1285.124,1091.374 1390.288,1275.061 1253.934,1493.619 1272.472,1505.186 1415.742,1275.541 		
			"/>
		<polygon fill="#231F20" points="1363.475,1092.158 1415.669,1012.703 1332.229,873.974 1468.465,655.607 1363.475,472.225 
			1415.669,392.769 1325.288,242.498 1306.563,253.76 1389.862,392.256 1337.847,471.439 1443.012,655.126 1306.704,873.61 
			1306.563,873.694 1389.862,1012.19 1337.847,1091.374 1443.012,1275.061 1306.656,1493.619 1325.194,1505.186 1468.465,1275.541 
					"/>
		<polygon fill="#231F20" points="1416.196,1092.158 1468.392,1012.703 1384.952,873.974 1521.188,655.607 1416.196,472.225 
			1468.392,392.769 1378.011,242.498 1359.286,253.76 1442.586,392.256 1390.569,471.439 1495.734,655.126 1359.427,873.61 
			1359.286,873.694 1442.586,1012.19 1390.569,1091.374 1495.734,1275.061 1359.379,1493.619 1377.917,1505.186 1521.188,1275.541 
					"/>
		<polygon fill="#231F20" points="1471.235,1092.158 1523.431,1012.703 1439.99,873.975 1576.228,655.607 1471.235,472.225 
			1523.431,392.769 1433.049,242.498 1414.325,253.76 1497.624,392.256 1445.608,471.439 1550.773,655.126 1414.466,873.61 
			1414.325,873.694 1497.624,1012.19 1445.608,1091.374 1550.773,1275.061 1414.418,1493.619 1432.956,1505.186 1576.228,1275.541 
					"/>
		<polygon fill="#231F20" points="1522.801,1092.158 1574.995,1012.703 1491.556,873.975 1627.792,655.607 1522.801,472.225 
			1574.995,392.769 1484.613,242.498 1465.89,253.76 1549.188,392.256 1497.173,471.439 1602.338,655.126 1466.03,873.61 
			1465.89,873.694 1549.188,1012.19 1497.173,1091.374 1602.338,1275.061 1465.982,1493.619 1484.521,1505.186 1627.792,1275.541 		
			"/>
		<polygon fill="#231F20" points="1629.719,1012.703 1546.278,873.975 1682.515,655.607 1577.523,472.225 1629.719,392.769 
			1539.337,242.498 1520.612,253.76 1603.912,392.256 1551.896,471.439 1657.061,655.126 1520.753,873.61 1520.612,873.694 
			1603.912,1012.19 1551.896,1091.374 1657.061,1275.061 1520.705,1493.619 1539.243,1505.186 1682.515,1275.541 1577.523,1092.158 
					"/>
	</g>
</g>
</svg>
