<?xml version="1.0" encoding="utf-8"?>
<!-- Generator: Adobe Illustrator 16.0.0, SVG Export Plug-In . SVG Version: 6.00 Build 0)  -->
<!DOCTYPE svg PUBLIC "-//W3C//DTD SVG 1.1//EN" "http://www.w3.org/Graphics/SVG/1.1/DTD/svg11.dtd">
<svg version="1.1" id="Layer_1" xmlns="http://www.w3.org/2000/svg" xmlns:xlink="http://www.w3.org/1999/xlink" x="0px" y="0px"
	 width="2000px" height="1200px" viewBox="0 400 2000 1200" enable-background="new 0 400 2000 1200" xml:space="preserve">
<polygon fill="#231F20" points="-213.529,1630.947 -250.012,1608.187 18.332,1178.072 -188.628,816.586 -86.265,660.757 
	-250.195,388.203 -213.346,366.04 -35.479,661.766 -138.195,818.131 68.422,1179.02 "/>
<polygon fill="#231F20" points="-112.052,1630.947 -148.534,1608.187 119.809,1178.072 -87.151,816.586 15.213,660.757 
	-148.717,388.203 -111.869,366.04 65.999,661.766 -36.718,818.131 169.9,1179.02 "/>
<polygon fill="#231F20" points="-4.877,1630.947 -41.359,1608.187 226.984,1178.072 20.024,816.586 122.388,660.757 
	-41.542,388.203 -4.694,366.04 173.173,661.766 70.457,818.131 277.075,1179.02 "/>
<polygon fill="#231F20" points="95.461,1630.947 58.979,1608.187 327.322,1178.072 120.362,816.586 222.726,660.757 58.795,388.203 
	95.644,366.04 273.511,661.766 170.795,818.131 377.413,1179.02 "/>
<polygon fill="#231F20" points="198.078,1630.947 161.596,1608.187 429.939,1178.072 222.979,816.586 325.343,660.757 
	161.413,388.203 198.261,366.04 376.128,661.766 273.413,818.131 480.03,1179.02 "/>
<polygon fill="#231F20" points="302.974,1630.947 266.492,1608.187 534.835,1178.072 327.875,816.586 430.239,660.757 
	266.309,388.203 303.157,366.04 481.024,661.766 378.308,818.131 584.926,1179.02 "/>
<polygon fill="#231F20" points="405.591,1630.947 369.109,1608.187 637.453,1178.072 430.492,816.586 532.856,660.757 
	368.926,388.203 405.774,366.04 583.642,661.766 480.925,818.131 687.543,1179.02 "/>
<polygon fill="#231F20" points="510.487,1630.947 474.005,1608.187 742.348,1178.072 535.388,816.586 637.752,660.757 
	473.822,388.203 510.67,366.04 688.538,661.766 585.821,818.131 792.439,1179.02 "/>
<polygon fill="#231F20" points="614.244,1630.947 577.761,1608.187 846.105,1178.072 639.145,816.586 741.509,660.757 
	577.578,388.203 614.427,366.04 792.294,661.766 689.578,818.131 896.196,1179.02 "/>
<polygon fill="#231F20" points="714.582,1630.947 678.1,1608.187 946.443,1178.072 739.483,816.586 841.847,660.757 
	677.917,388.203 714.765,366.04 892.632,661.766 789.916,818.131 996.534,1179.02 "/>
<polygon fill="#231F20" points="814.92,1630.947 778.438,1608.187 1046.781,1178.072 839.821,816.586 942.186,660.757 
	778.255,388.203 815.104,366.04 992.971,661.766 890.254,818.131 1096.873,1179.02 "/>
<polygon fill="#231F20" points="920.956,1630.947 884.473,1608.187 1152.816,1178.072 945.856,816.586 1048.221,660.757 
	884.29,388.203 921.139,366.04 1099.006,661.766 996.29,818.131 1202.908,1179.02 "/>
<polygon fill="#231F20" points="1028.13,1630.947 991.647,1608.187 1259.99,1178.072 1053.031,816.586 1155.396,660.757 
	991.464,388.203 1028.312,366.04 1206.181,661.766 1103.465,818.131 1310.082,1179.02 "/>
<polygon fill="#231F20" points="1127.329,1630.946 1090.847,1608.187 1359.188,1178.072 1152.229,816.586 1254.595,660.757 
	1090.664,388.203 1127.512,366.04 1305.38,661.766 1202.663,818.131 1409.28,1179.02 "/>
<polygon fill="#231F20" points="1234.505,1630.946 1198.022,1608.187 1466.362,1178.072 1259.403,816.586 1361.769,660.757 
	1197.84,388.203 1234.688,366.04 1412.554,661.766 1309.837,818.131 1516.454,1179.02 "/>
<polygon fill="#231F20" points="1338.261,1630.946 1301.778,1608.187 1570.118,1178.072 1363.159,816.586 1465.524,660.757 
	1301.596,388.203 1338.444,366.04 1516.31,661.766 1413.593,818.131 1620.21,1179.02 "/>
<polygon fill="#231F20" points="1438.599,1630.946 1402.116,1608.187 1670.456,1178.072 1463.497,816.586 1565.862,660.757 
	1401.934,388.203 1438.782,366.04 1616.647,661.766 1513.931,818.131 1720.548,1179.02 "/>
<polygon fill="#231F20" points="1542.354,1630.946 1505.872,1608.187 1774.212,1178.072 1567.253,816.586 1669.618,660.757 
	1505.689,388.203 1542.538,366.04 1720.403,661.766 1617.687,818.131 1824.304,1179.02 "/>
<polygon fill="#231F20" points="1646.11,1630.946 1609.628,1608.187 1877.968,1178.072 1671.009,816.586 1773.374,660.757 
	1609.445,388.203 1646.294,366.04 1824.159,661.766 1721.442,818.131 1928.06,1179.02 "/>
<polygon fill="#231F20" points="1754.424,1630.946 1717.941,1608.187 1986.282,1178.072 1779.322,816.586 1881.688,660.757 
	1717.759,388.203 1754.606,366.04 1932.473,661.766 1829.756,818.131 2036.374,1179.02 "/>
<polygon fill="#231F20" points="1855.9,1630.946 1819.418,1608.187 2087.759,1178.072 1880.8,816.586 1983.164,660.757 
	1819.235,388.203 1856.083,366.04 2033.949,661.766 1931.233,818.131 2137.851,1179.02 "/>
<polygon fill="#231F20" points="1959.656,1630.946 1923.174,1608.187 2191.515,1178.072 1984.556,816.586 2086.921,660.757 
	1922.991,388.203 1959.839,366.04 2137.706,661.766 2034.989,818.131 2241.606,1179.02 "/>
</svg>
